<?xml version="1.0" encoding="UTF-8"?>
<svg id="Layer_1" xmlns="http://www.w3.org/2000/svg" version="1.1" viewBox="0 0 1000 684">
  <!-- Generator: Adobe Illustrator 30.1.0, SVG Export Plug-In . SVG Version: 2.1.1 Build 136)  -->
  <defs>
    <style>
      .st0 {
        fill: #fff;
      }

      .st1 {
        fill: #f97316;
      }

      .st2 {
        fill: #ececec;
        stroke: #000;
        stroke-linecap: round;
        stroke-linejoin: round;
        stroke-width: .1px;
      }
    </style>
  </defs>
  <path id="AL" class="st2" d="M654.7,528.1l.5.4,2,2.9,1.4.5,1.9,1.3,1.4,3.2v2.2l-.4,2.6.3,2.1-.8.8.7,2,.2,1.9,1.2,2.2,1.2,1.1,1.3,2.4,1.6-.2,1.3,1.1v1.1l1.1,1.8-.8,2.6-1.7.8-1.2,3.1-.3,2-.6.5-1.9.3-1.7,1.3,1,2.2-.9.7-.3,1.5-.7.7-2.7-.9-.7-2.5-1.7-2.7-4.9-2.6-1.2-1.1.4-1.5v-1.4l-1.5-2.4.3-2.6.8-2.2-.3-2.7v-2.1l-.6-2.9.5-2.1.9-1.3-.2-2.2-1.5-1.1-1.6-.2v-3.1l-.3-.6h1.7l-1.7-2.8,3.2-5.3,1.1.3.8,2.1,3.4-1.2h0Z"/>
  <path id="AD" class="st2" d="M423.4,528.8l-2.8,1.1-.7-.4v-2.1l.9-.7,2.6.6v1.5h0Z"/>
  <path id="AM" class="st2" d="M974.6,572.4l-3.2-2.8-2.3-1.7-1.6-.7-3.5.4-2.9-.9-1.8-.9.5-.6-1.9-3-.8-1.9,1-1.4.2-2.3-1.7-3.3-1.7-1.2-1.3-1.6,4.4-.3,5.3-1.3,3.2.3,1.1-.2h3.5l-.5-.8,2.3-.5,1.3,1.5,1.6,1-.9.9,2.3,1h1.2l3.3,2.5v.7l-1.9,1.5-.2,1.1,3.2,3.4,2.4,1.4,3.2,1.5.2.9-.9,2.5h-3l.6.9,1.9,1.2,6.1,4.4,1.5-.3,2.2.9.2,1.3-1,1.4,1.9,1.4.8,1.5-1.8.5,1.4,1.5.5,2.6h-2.2l-2.5.4-3-4.7v-1l-3-2.1v-1.7l-.7-1.2-1.7.2-1.9.9-2.9-1.6-1.2.2-.3-1.1-1.8-1.7-3.2.9h0Z"/>
  <path id="AT" class="st2" d="M607.8,434.9l-.9,2.4v.8l1.7,2.9,2.3,2.9-.6.7-.6,1.9.7,2-3.9.3-2.5-.9-1.3,1.4,2.6.7.5,1.1-.5,1.4-2.2,1.2.4,1.5-.5.7,1.1,1.6-.3,1.8-2.5.5-1.8,1.7-1.3.9v1.9l-2.5-.5-1.6.2-2.3,1.1-2.8-.2-2.6.2-1.9.7-1,1.3-3,1.2-5-.7-5-.9-2.6-.5-4-.3-8.6-1.5-1.1-.5-3.1-3.5v-2.3l-4.7,1.5-3.1-.2-3.4.3-1.4.6-1.2,2.2-1.1.4-2.1-.4-.9-.8-3-.3-.5-1.5-.8-.3-2,1.9-2.3-.4-1.5-.8-.4-1-3.3-.8.3-.8-1.1-2.5,1-3-.9-.7,1.7-.5.7-.5,3.5,1.6.9,1.4,1.2.3v1.3l1.5-.5,1-1.6.2-1.9h2.8c0-.1,2.7.3,2.7.3l1.4,1.9,3.8-.5,1.1-.9,3.9-1.5,5.7-.5v-1.4l2.1.3,1.5.8,2.5-.5,1.1.5.2,1.1,1.2.9,1.7.4.3-1.5-.3-1.9-1.7-.3.6-1.3v-1.3l-2.6-2.8.6-1.3,3.1-1.8,2.9-.8,1-1,.7-2.9,2.3.9,1.3-.9.2-2.8,2.2,1.2.8,1.3,3.9.4,1.4-.7,2.5.4v-1.1l1.4-1.6h1.2l.3-3.2,1.2-.2,1.6.8,1.4-.4,4.8,1.7h1.5c0-.1,3,1.6,3,1.6l3.8.2,1.2-.9,5.1,1.5,1,1.6h0Z"/>
  <path id="BE" class="st2" d="M470,401.8l1.6-.5.8.8h1.2c0,.1,3,2.4,3,2.4l-.4,1.5,1.7.7.4,2-2.3,1.3-.6,1.7-1.7-.7-1.3,1.3-1.4,2.5-.2,1.7,2,2.4-1.1,1.7-3.4.4-2.8-2.6-3.3-1.5h-1.7c0-.1-.4-2.1-.4-2.1l-.6-.6.8-2.7-1.9.6-.5,1.4-1.3.6-2.2.3-2.3-.3-.5-.6.7-1.4-.7-.7.4-1.6-1.6-1.1-3.6-.4-.9.3-.6-2-4.2-1.1-.5-2-1.6-1.8-3.2,1-2.9-2.4v-1.2l-.9-2.2,5.1-2.5,4.7-1.7.3,1.3,1.2.7,1.2-.6,3.9,1.1,3.2-1.5.6-1.2,2.1.3-.2-.9,1.4-.7,1.5.8,1.5-1,1.1,1.3,2.5-.8.5,1.6,2.6,1.4,1.9-.4,1.7,1.3,2.6,1.1-1,2.9-1.1,1.3.7,1.1h0Z"/>
  <path id="BG" class="st2" d="M759.6,509.6l.2,3.7-.9,1.8-2-.6-2.2.5-1,2-1.2,1.2v2.6l.4,4.2-1.6.7-2.9,3.7,3,1.8,1.7,2.2,2.4,2.5.5,1.2-1.7-.2-.9.4h-1.8l-1.5.6-3.4-2.5-3.5.3-1.5,1.1-3.4.4-1,2.2-1.9.3-.3,1.4-1.6-.5-1.6,1.1.7,1,.9,2.7-.2.8-2.5,1.2-1.8-.3-3.2.4-3.4.9-1.7-1.1-3.7-1.2-.9.6-2.4-1.4-1.2-1.7-1.6.5h-4.2l-.2.8-1.9.2-3,1.1-2.6-.2-2.4.2-1,1-3-.2v-4.2l.5-1.7-.9-1-1.7-3.3-3.4-1.8-3.3-3.2,1-.3,1.1-1.7-1.4-2.9v-3.3l1.1-.6h1.8l1.1-1.7,1.6-1.7.3-1.4-1.6-1-1.3-1.6-2.9-1.5-2.4-3.9-.6-2.4.4-2.3,2.1-1,.2-1.9.9-.7,4.3,2.5-1.8,2,.9,1.8,3.7-.6,3.9.3,5.3,1,3.5.4,2.5-.5,9.4,1.7,4.2.2,2.3-.6,1.6-.9,1.2-1.6,3.3-2.1,3.2-1.2,4.4-.9,2.9-.4,4.5,2.3,3.2.4.9.6,1.7-.5,2.5,2.6,2.2.7,2.6.5h2Z"/>
  <path id="BA" class="st2" d="M638.2,492.2l2.8-.7,1.5.8-.5,2.5-1.6,2.7v2.6l.4.8,2.4,1.2,3.3,2.9-.3.8h-3.1c0-.1-.5.7-.5.7l3.2,3.7-.2,2.2-2.5-.3-.7.8-3.2.5,1.4,2.2-2.3.2-2,1.7-.5,1.7v1.5l-1.6.2-.5.7.6,3,1.1,1.6v.8l-1.2,1-1.7-.7-6.2-3.8-.6-.9h-1.6l-1.1-.5.3-1.6-3-2.5-1.5-1.6-.4-2.2-2.4-1.1-5-4.1-1.7-2-2.8-2.3-2.3-2.4-1.3-4-3.4-3.2-1.9-1.3v-1.4l.2-5,1.2-.6,1.8.4,1.7,1.8,1.8,1,2.7-3.2,3.2.3,1.5-1.2,2.7,1.6h2.5c0,.1,2.8.8,2.8.8l1.7-.6,1.6,1.3,2.2-1,1.8.3,1.8-.2,2.6.7,2.2.2,1.1.8,1.3,2.2,2.2.2h0Z"/>
  <path id="BY" class="st2" d="M724.5,321.5l1.8,1.3,1.2-.4h1.9c0-.1,3.1,2.1,3.1,2.1l1.6-.9,1.5-.3,3.6,1.2.2,2.3,1.7,1.5,2.1-1.3,2.7-1.1h3.4l2.7.9,2.4,1.8,3.5,1.4.4,2.5-.6,1.8,2.1,2.1.5,1.3-1.3,2v2l4.1,2,.5.5-.5,1.8,1.4.6,1.8,2.4,1.5,1.4,4.9,2.1.7.8-.4,2.8,5.3.5,3.2,1.3v1.1l.7,1.1,2.8,1.4.6,1.7-2.6,1-.3.9-3,1.8-3.5-.2-2.4-1.5h-2.9c0,.1-1.4,2.8-1.4,2.8l3.9,3.3.6,1-.2,1.5,1,1.5.5,3.3,1.6,1.4,1.3,1.8h-5c0-.1-1.4.7-1.4.7l-1.7-.4-1.1.5-2.2,2.3-.8,1.2-1,3.3,1.8,3.6-.8,1.4-2.7-.9-.5-1.2-2-1.1-7.1.6-2.3.8-.6-.5-2.5-3-3.8,1.6-.6,1.1-1-.3-.8-1.3-5.1-1-1.9.7-1.9-.5-1.2,1.7-.8-1.4-1.1-.4h-3c0,.1-1-.2-1-.2l-1.8-2.1h-2.3l-6.1-.9-6.5-1.5-7.8-.4h-2.4c0,.1-2.3.6-2.3.6l-5.9.5-.8,1.4-1.6,1.6-1.9,1.2-1.1-.5-1.9-.3-1.1.5v1.4l-.9-1.6v-1.3l.7-1.5-.4-1.1.2-2.4-.8-1-1.8-1-3.3-1.3v-1.2l2-2.7.8-.5,4-1.7.6-1.6-.9-3.9-1.7-3.6-2.9-4.9-2.1-5.1,2.9.4,1.6-.3,3.7-.3,1.6.9,3.3-1.3h1.8c0,.1.8-2.5.8-2.5l2,.2,1.4-1.2,2.1-.5,1-.7,1.7,2.3,2-.2v-1l-.9-1.1-1.9-.5.5-2,1-1.5-.4-2.3,1.1-3,2.6-.6.8-.6,1-2h3.6c0,.1.4-1,.4-1l1.3-1-3.9-1,.7-3.1v-1.8l2.6-.6,1.2-1.5,1.1-.3,3,.4h3.1c0,.1.4-1.6.4-1.6l2.5-2.4,1.4-.8,1.3-.2h0Z"/>
  <path id="CH" class="st2" d="M514.1,449.1l.8,1.1,2.6,1.3h1.2l.9.7-1,3-.5,1.5v1.7h1.3c0,.1,3.3.9,3.3.9l.4,1,1.5.8,2.3.4,2-1.9.8.3.5,1.5-.5,3.1.5,1.8-1.9-.2-1-.9-1.3.3-.6,1.8,1.5,3.5-1.2.3-1.4-1.9h-.7c0-.1-2.9,1-2.9,1l-2-.8-.8-2.1h-2v3l-.5,1.1-2.2,2.6-.2,1,.7,1.7-1.2.7-.9-1.4-1.3-1.2.4-1.2-2.2-.6-2.4-2-.2-2.5-1-.6-3.4,2.9.6,1.5-1.6,2.2-2.4,1.4-3.1-.8-2.6,1-2.4.5-1.4-.7-.9-1.4-2.3-2.3.5-1.7-.8-2.2-2.2-.3h-1.9c0,.1-2.3,1.6-2.3,1.6l.5,1.3-2.3,1.6h-1.4v-1.1l1.5-1,.3-1.5-.8-.7,1.1-2.9,3-2.2.5-2.9,2.1-.9,3.8-4,.6-.9-1.3-1.1,1.8-1.4h1.1l.8.8,2.7-.3.8-1.4,1.5-.7,1,.3h2.8c0,.1,3.3-.5,3.3-.5l2.6.2-.2-1.5,1.3-1.2h1.3l1.4,1,.8-.2,1.1.9,3.7-.2h0Z"/>
  <path id="CZ" class="st2" d="M578.9,400.5l2.1-.4v-1.9l3.2.8.3,1.1,1,1.1,4.6,1.1,2.7,1.1.8.9,3.2-.7,1.8,1.2-.7,1.1-1.6,1.2,1.6.9,2,1.8,1.5,1.9,1,.4,3.5-2.5-1.7-2.4h1.3l2.2.6,3.3,1.9,3.6-.7v1.6l-1.4.5,2.7,2.3,1,.6,1.8-1,3.5,1.8.5-.2,2.7.8.5,1.8,2.8,2.2.5,1.6-2.8.3-2,1.5-.6.8-2.3,1.2-.7,3-1.6.8-2.1,1.9-1.5.7-1.7.2-3.6-.5-1.4,1.2-1.1,2.8-1-1.6-5.1-1.5-1.2.9-3.8-.2-3-1.7h-1.5c0,.1-4.8-1.6-4.8-1.6l-1.4.4-1.6-.8-1.2.2-.3,3.2h-1.2l-1.3,1.6v1.1l-2.6-.4-1.4.7-3.9-.4-.8-1.3-2.2-1.2-.6-.7-2.9-2.2h-1.3l-1.3-1.6-2.5-1.5-2.9-2.6h-1.3l-2.3-2-1.8-2.7-1.4-1.5,1.2-1.7-.6-1.6-2.3-1.3-2.5-3.4.5-.7,1.9,2,1.9-2.6,1.1-.6,2.6-.6,2.1.4.8-1.3,2-.3.6-1,1.6-.7h1.1c0,.1.6-1.1.6-1.1l4.4-1,3.5-1.5,1.9-.6-1.5-1.5.8-.6,2.2.4,1.5,1.5v.9l1.4.6.9-.7h0Z"/>
  <path id="DE" class="st2" d="M567.9,355.2h-3.4c0-.1-.2-1.8-.2-1.8l-1.1-1v-1l4.6,2.6v1.2h.1ZM533.1,347.1h-1.8l-1.4-.7.8-1,1.7.4.7,1.3h0ZM561.4,347.6l-1.3.7h-1.3l-1.3,1.3-2.1-1.1-.5-1.1v-2.2l.7-1.4,2-.9.9,1.2,1.7.6-.5,1.7,1.7,1.2h0ZM514.8,341l1.8.7,1.6,1.6v1.4l-1.6,1.6,3.2-.3.8,1.2,1.7-.4,4.5,1.8,3.2-.9.7,1.4-.6,1.5-2.2,1.6,1.4,1.2,2.1-.2,3.6.9,3.3-2.5,1.1-.5,3.6-.3,5.1-4.5,5.3.9,1.5,1.9,3.7,2.1,3.2-.2,1.3,2,.8,2.5,1.9,1.3,2.8.5.7,2.6,1.8,4.1-.3,2.7-1.9,1.8-.7,1.6,1.6,1.4,3.3,2.1,1.4,1.7-.6,2.6,2,2.3.8,1.9-.7,2.6-.8,1.1,1.9,3.1v1.6l2.2.9,1.6,3.2-.4,2.3-1.6,3.6-.9.7-1.4-.6v-.9l-1.5-1.5-2.2-.4-.8.6,1.5,1.5-1.9.6-3.5,1.5-4.4,1-.6,1.2h-1.1c0-.1-1.6.6-1.6.6l-.6,1-2,.3-.8,1.3-2.1-.4-2.6.6-1.1.6-1.9,2.6-1.9-2-.5.7,2.5,3.4,2.3,1.3.6,1.6-1.2,1.7,1.4,1.5,1.8,2.7,2.3,2h1.3l2.9,2.6,2.5,1.5,1.3,1.6h1.3l2.9,2.2.6.7-.2,2.8-1.3.9-2.3-.9-.7,2.9-1,1-2.9.8-3.1,1.8-.6,1.3,2.5,2.8v1.3l-.5,1.3,1.7.3.3,1.9-.3,1.5-1.7-.4-1.2-.9-.2-1.1-1.1-.5-2.5.5-1.5-.8-2-.3v1.4l-5.8.5-3.9,1.5-1.1.9-3.8.5-1.4-1.9-2.7-.4h-2.8c0,.1-.2,2-.2,2l-1,1.6-1.6.5v-1.3l-1.1-.3-.9-1.4-3.5-1.6-.7.5-2.2-1.2-5.1-2.3,1,1.6-3.7.2-1.1-.9-.8.2-1.4-1h-1.3l-1.3,1.2.2,1.5-2.6-.2-3.3.6h-2.8c0-.1-1-.4-1-.4l-1.1-1.3v-1.5l.6-2-.2-2.4.3-1.5,1-1.8,1.4-5.5,3.5-3.8v-1.3c-.1,0-1.7-.6-1.7-.6l-4.8-.8-2-1.4-3,.6h-2.1c0-.1-.3-1-.3-1l-1.4-.4-1.8.7-3.5-4.3h-1.4c0-.1.6-3.1.6-3.1l.9-.9v-1.4l-2.8-1.1-1.5-1.6-.3-2.2.6-1.7,2.3-1.3-.4-2-1.7-.7.4-1.5-3-2.3.6-2.4-1.9-1.2.5-.8,2.2-1.6-.7-1.2,1.3-2.8v-1.2l-3.1-4.1.7-1.1,1.8-.7,2.3.8,4.5-1.3.7-1-1-.9.3-.9,2.6-1.6.6-2.6-.8-1-2.6-.3-.7-1,.6-1.6h3.1c0,.1,1.1-3.7,1.1-3.7l.7-1.7v-4.3c-.1,0-1.8-1.4-1.8-1.4l.5-2.7,1.1-1.4.9-.4,4-.3h4.5c0,.1,1.9,2.3,1.9,2.3l-.6,1.2,1.6.3.9-2.4,1.4.8h1.1c0-.1-.5-1.8-.5-1.8l.2-1.6.9-1.4,3.3.6,3.6-.3v-.6c.1,0-2.7-.5-2.7-.5l-.9-1.1-.2-3.9-1.5-.8-1.6.3v-1.5l3.4-1.1v-1l-3.4-3.8-.2-1.6h2.7c0,.1,5.2,1.4,5.2,1.4l3.1-.7,1.5.4h0Z"/>
  <path id="DK" class="st2" d="M533.5,340l2.1,1,2.4.3.4,1.9-3.5.7-5.1-2.1v-2.5l2.4-.2,1.3.9h0ZM547.2,338.9h-2.3c0,.1-1.9,1.1-1.9,1.1l-.3-1.2,1.6-1,1.2.2,1.7.9ZM518.4,340.1l-1.2.2-1.7-.5-.6-2.3,2.7,1.1.8,1.5h0ZM526.4,342.1l-1.4-1.5,2.5-2.9.7-.2-1.8,4.6ZM576.5,338.1l-2.4-.2-2.4-1v-2l.6-.9,4.5,2.3-.3,1.8h0ZM524.4,329.4l2.3,4.3v2.8l-1.9,1.2h-2.1l-5.4-1.7-1.7-2.9v-2.3l4.7-1.4,2.6.8,1.5-.8h0ZM547.7,329.6l-1,.6-.7-.9.9-.9.8,1.2h0ZM523.8,326.8h-.9v-3l1.5,1.6-.6,1.4ZM546.4,326.8v1.5l-.6.7-2,.7-1.1,1.8,2,1.2.5,1.5-1,.7-2.6.7v5.6l-2.2.6-1.5-2.1v-.9l-1.4-3.1-2-.4h-2.2c0,.1-1.5-1.7-1.5-1.7v-2.1l-.9-2-1.3-.6.4-1.4,3.1-.2,1.5-1.9v-.9l1.8-.2.8.7v2.6l1.7.5,1.1-2.9-.9-1.1,3.9-2.2h1.1c0-.1,3,.8,3,.8l-.4,2.1.7,2h0ZM514.8,341l-1.5-.4-3.1.7-5.2-1.3h-2.7c0-.1-.5-2.2-.5-2.2l-.8-1.4,1.1-.3-.9-3.9-3.2-1.3-2.5-1.4.5-5.6-1-2.3v-6.9c.1,0,1.4-.1,1.4-.1l3.1.8,1.5.9.6-1.9,1.6-1.6,2-.8,1.6,1.3.3-4.5-1.6-.5-1.3.4-1.3,1.9-1,2.4-1.9.2-1.5.7-2.4-1.4v-1.4c.1,0,1.7-1.9,1.7-1.9l2-1.9h2.2l1.6-.6h3.9c0,.1,2.8-1.2,2.8-1.2l2.8-3.6,1.5-1.5,3.3-.5,3-1.7-.8,2.5,1.2,1.7v3l-.9,1-1.4,2.5.2,5.6,2.5,1.5h4.1l1,1.1-.7,2.2-2.6,1.4h-.9l-1.4-1.1-1.1.9-1.2,5.1h-2c0-.1-1.2.4-1.2.4l1.4,1.2-1.3.8-3.4,3.1,1.1,3.4-.2.9-1.5,1.3-.6,1.1,2.3.3,1.3,2.9h0Z"/>
  <path id="EE" class="st2" d="M655.5,285.3l3.9.2,4,1.8-1.8.7-3.7,2.5-.3.5h-2.6c0-.1-1.4.1-1.4.1l-1,.9-.9,2.8-1.6.5-.3-.9,1.6-1.8-1.5-1.4-1.9-.7.9-1.8-1.6-1.6,1.5-.2,1,.5,2-.5.5-1,3.2-.6h0ZM663.8,286.3l-.9.2-2.4-1.1,1-1,1.9.5.4,1.4ZM658.4,282.3l-.8.7-.9-.6-.9,1.6-1.3.3-1.9-2.5-2.9-.5-1.3-.7,4.5-.4,1.2-1.6h1.3c0,.1.4,1,.4,1l2.1.3.9,1-.4,1.4h0ZM711.6,301.2l-1.9-.2-3.4-1-4,1.2-2.8-1.1-3.5-2.7-.6-.7-2.3-.5-5.6-2.5-1.1.7-1.5-1-8.4,2.8,1-3.4v-3.6l-2.2-.4-.9,1.3-1.3.3-4.1-1.3-1.2-2.1-1.6-1.1-.8-1.2v-1.8l-1.5-2,.7-1.1-.7-2.8,3-1.2,3.3-.2.9-1.3,2-1.3,2.3.2,3.1-1h6.3c0,.1.4-1.6.4-1.6h3.2l7.6,1.2h1.8l2.8,1.2,1.4.3h4l6.3.5,1.2-1,1.5,1.2-1,1.4-1.2.4-.9,3.2-.8,1-1.7-.3-2.5.2-2,.5-1.3,1.1v1.1l2.7,2.3,1.4,2.8,2.6,2.2.8,1.3,2.4,2.9,1.8,2.5-2.3.6-1.2,2-.2,2h0Z"/>
  <path id="FI" class="st2" d="M646.5,260l2,.2-.6,2.8-2.3-1.8.9-1.2h0ZM644.6,260.5l-2.1-.6.9-.8,1.2,1.4h0ZM638.1,257.8l-1.5.7-.3-1.7,1.8,1ZM663.6,194.9l-1.5.5-1.3-.3-.2-.9,2-.6,1,1.3ZM693.7,140.3l-3.7,1.3,1.6.8.8,1.2-2,3.2v.6l3.2,4,7.2,1.7,2.3,1.8,3.6,2.3,1.8.9v1.9l-2.9,3-2.6,3.1-1.2,1.7.4,1.7,2.6,2.1,2.3,2.2,3,3.5,3,2.5,3,4.2.4,1.4-3.7.7,1.2.9-.6,1.3.3,1.9-.5,1.5,1.9.3.3,1.3-1.7,1v.9l1.4,1.7,1,.6,3.2.6.9,1.6-1,1.7,1.8,2.2,4.5,1.8.7,1.3.2,1.7-2.4,3-2,.8.7.8,4.5,2.6,6.6,2.9,2.6,1.3,2.1,1.9,2.2,1.6.5,1-1.6,4.5-.7,1.2-2.2,2.2-3.4,2.8-2.3,2.3-5.3,5.9-1.9,1.5-2.1,2.2-4.9,3.3-.7.8-2.5,1.5-5.6,5.2-3.5,1-2.6-1.1-1.8.2-1.2.8-2.5.2-2,.6-1-.7-.7.6-1.9.2-2-1,.3,1.5-3.3,1.5-.8-.9-2,1-2.1.2-1.1.8-5.9,1.1-1.5,1.3-1.2-.3-6.7,1.1-2.9-.2-2.7,2-1.8.4,1.5-3-2.4-1.1-1.2-1.6-.7.4-.3,1.5-1.5.8h-2c0-.1-.4-2.5-.4-2.5l.8-2.3-3.6-.6-3.8-1.4h-.9c0-.1-.7-1.4-.7-1.4l-2,.9-2.1-.9-1.7-5.3v-1.3l.9-1.6v-3.4l-.7-2,1.1-.6-.9-1.6-2.2-3-1.6-1.1.5-3.3-.6-1.6-1.9-1.1-1.1-2.9.6-2.4,2.4-2.2v-1.2l.9-1.1-.5-1.3,2.7-.5,1,.4,2.4-.4,1.9-1-1.1-1.8,1.5-.7,1.2-1.2v-1l2.2-.5,2.4-1.9,2.3-1.1,2.3-1.9h1.1c0-.1.3-1.4.3-1.4l2.5-1.9.8-1.6,2.3-1.8,2.2-3.9,3.8-1.2,3.8.3-.6-1.7,1-.3-.6-1.3-1-.6v-4.6l-1.3-.9-4.5-1.6h-1.7c0-.1-1.2-1.3-1.2-1.3l-4.6-.7-1.6-2.5-1.9-2.2-1.8-.6-1.3-2.6v-1.3l1.5-1.3v-1.8l.6-1.4-.6-.9-3.3-2.6-.8-1.6v-1.1l1.1-.8-.6-1.3-2.8-.4.3-1.9-.7-1.4-.4-2.4,1.1-1-1.8-.9-1.9-1.5h-1.4c0-.1-1.2-1.7-1.2-1.7l-3.5-1.8-8.3-1.7-4.2-1.8-4.8-2.3-2.9-1.1-.4-.9-2.9-.8.5-.4h2.1l1.9.4.5-.6-1-1.4,1.9-1.1h3.6l7.9,5.5,1.4,1.8,6.9.6.8.5h1.8c0-.1,3.7-1,3.7-1l1.2-1.2h1.5c0,.1,3.6,1.2,3.6,1.2l3.9.8,2.6.8,1.3-.6.5-1.7,1.6-1.3,2.1-.3,1.5-1.4-.7-3.2.6-1.7.7-3.8,2.6-1.7,1.7-1.8,2.1-.2,3.8.4.9-.2,3.5-1.6,2.9-.3,1.8,1.2,4.2,2,4.2,1.1,3.6.8,2.6,2.7-.7,1-3.2,2.9v.7l1.7,1.3h0Z"/>
  <path id="GB" class="st2" d="M389.1,403.1l-1.6,1.3-1.3.2-2.5-1.2v-.5l2.5-1.1,2,.6.9.7ZM352.6,363.4l1.3.9-3.4,1.9-1.2-.6-.9-1.2v-1.9c-.1,0,1.1-.5,1.1-.5h1.8l1.3,1.4h0ZM329.3,352l-2.1.4h-2.9v-1.5c.1,0-1.3-.5-1.3-.5l-1.8-2.7-1.3-.5-1.9,1.6.5.9-2.4,1.8-2.9-.3-.8-.7-2.1-.4-.2-1-2.7-2,1-1.4,2.9-.9-1-1.4.2-.8h1.6c0,.1,2.2-.7,2.2-.7l1.2-1.6,1-2.3,1.9-.9,1.3.6,1.9-2h2.8c0-.1,2.7-.8,2.7-.8l3.9.3,1.1,1.1.5,1.7,1.3,1.7,1.7,1.4v.9l-2,1.1,3.5.3,1.2,2.5-2.1.3v1.4c-.1,0,1,.2,1,.2l-.6,1.4-2.6.6-1.4,2.2-1,.5-2.3-.5h0ZM343,331.8l-2.6-.5-.6-2,.9-1.4,1.8.7.6,1.3v1.9h0ZM331.5,324.7l.7,3.4-2.4,1.3-.8-2.4-1.4,1,.2-1.9,1.5-.3,2.2-1.1h0ZM333.2,326.4l-1.1-1.2,1.6-2.2,1.7-1v1.6c-.1,0-2.2,2.8-2.2,2.8h0ZM335.7,318.6l-4.6.8.6-3-1.9-.9.3-.9,2.1-.5,1.7,1.7,2.1.6-.3,2.2h0ZM319.5,307.2l-1.5-.2-.4-1.4.2-2.3,1.6.2v3.7h0ZM332.3,301.5v2.8c-.1,0,2.8.8,2.8.8h2c0-.1.4.5.4.5l-3.3,2.7h-.7c0-.1-.2-2.3-.2-2.3l-1.4.3-1.9-.3-1.2-1.9-2.7-.5-.9-1.1,1.4-.6.3-1.2,2.8-.6,1.5-.7.9,1,.2,1.1h0ZM320.4,298.9l1.2.9-1.1,1.3h-1.5l-2.2-1,.2-.5,3.4-.7h0ZM332.2,289l-1.6,2.6-1,.7-.2,1.7-3,1.6-3.2,2.4-1.4-1,2.6-1.7-2.1-1-.2-2.6.8-.7,1.4.7,1.9-.3-.7-1.2,6.3-3.2.4,2h0ZM367,286.8v1.2l-1.3,1.6-2.2,1.2-4.2,2.8-2.5,1.3-.5,1.6h1.4c0,.1.2.9.2.9l-2.2,1.6-.6,1.5,3-.4,5.3-1.5,3.6.5,2.6-.3,6.9.2,1.9-.3,2.3,1.3,1,1.7-2.8,3.4-.8,2.3-2,3.5-1.9,2-2,2.5-2.1,1.1-3.1.5,4.5,1.9-1.4,1.8h-2.4c0,.1-2.3,1.8-2.3,1.8l-2.1.7,3.6,1.1,2.4-1h2.7c0-.1,5.2,1.8,5.2,1.8l3.6,3.4,2,1.5.5,1.1,2.1,6.9,1.5,3.8,1.6,1.8,4.5,1.6,1.1.6,3.4,3.3,3.4,2.4-1.4,1.5.4,1.2,2.1,2.9.3,1.6h-1.3c0-.1-2.3-1.5-2.3-1.5l-.3.7,5,3.3,1.6,2,1,2.7-.6,1.1-3,2.7,2.8,1.4,1.2-.2,2-2.1,1.7-.2,4.2.3,3.8,1,3.3,2.1.7,1.1.4,3.1-2.2,5.8-2.8,1.9-.5,1.7-2.1.9-1.7-.3-2.4,1.2,1.7.6v1.7l-1.1.6-2.5.2,1.1,2,2.5.4,4.3-.2,1.9.2-.2,2.7-.4.4-3.8,1.7-1,1.8h-2.2c0-.1-1.1.6-1.1.6l-5.7,1.9-4.9-.8h-2.9c0,.1-4,.7-4,.7l-4.2-1.2-1.8-.2-2.8,1.7-4.2.5-2-.2.9,1.5-.9.4-3.8-.5-1,.5-1.4-.2-2.7-1.4h-2.6c0-.1-4.9,1.1-4.9,1.1l-1,1.3-1.3,3.5-1.1,1.2-1.4.2-4.5-2.5-1.5.5-2.5.3-2.7.7-3.9,2.4-.9,1.5-1.3.2-1.1-.9-1.4-.3-2.3.8-.3-1.3,1-1,2.8-.7,2.5-1.9,2.2-2.3,4.6-3.8.8-3.1,2.7-.7,1.4-2.5,4.1-.6h2.8l2.8.5h2.9c0-.1,1.1-.8,1.1-.8l1.9-2.4,3.6-3-4.7,1-3.8,2.3-3.2-.4-2.3-1.9-2.1-.8-2.1.4-.7-.9-2.4-1.7h-2.6l-3.6,1.7-2.6-1.2-.9-2.3.3-1.4,1.1-.7,2.5-.6,3.8-1.7,2.2-.7,2.8-1.9,1.2-2.3-.3-2,.5-1.4-.9-1.7.3-1.5-3,.3-2.7,1.2-.7-1.1,2.8-1.8,1-1.4,2.6-1.7,3.6-1.3h1.9c0,.1,3.7-.6,3.7-.6l2.7,1.3-.8-2.1,1.2-.4v-2.4c.1,0,1.7-2.2,1.7-2.2l-1.2-.6v-2c.1,0,1.6-.8,1.6-.8l.7-2.6-1.7-.5-2.1.6-1.7-1.5-2.8-3.6-.3-1.4,1.6-3.1,2.3-2-1.9-.8-1.4.2-2.7,1.2-2,1.3h-2.1l-.8-.9h-1.1c0,.1-2.5,1.2-2.5,1.2l-3.5-1.3-1.1,2.3-2.6-2.5-.3-1.9h1.3l1.2-2.4,2.9-4,.6-1.2-.5-1.4-1.9-1.5.3-2.6.8-1,1.5-.4-1.9-1.2-2.9.9-1.8.9.3-2-.6-.4-1.5,1.4v3.3c.1,0-2,5.7-2,5.7l-1.1.9-1.4-.5,1.1-3.9,1.4-2.5-.6-.3.3-3.6,1-2.9,1.7-3.8,2.2-3.5-4.1,2.7-1,.5-2.4-.4-.8-.7-1-2.3,1.8-.2,1.7-1.1-1.5-.7,1.5-.9,1.7-2.1.4-1.9-1-1.5-1.6-.6-.2-.9,1.7-1.9-.7-1.5,1.6-3.1h3c0,.1,1.9-.3,1.9-.3l-2.3-2,.7-2.9,3.7-.3-.8-1.8.3-2,1.6-.9,1.3.2,1,.9,2.6-.9.6.8,2.8-.6,3.7-.3,4.5-.6,2.2-.4,2.3.2-.6,1.7h0ZM366.4,282.8h-1.3c0,.1-1.3-1.3-1.3-1.3l1.5-.3,1.1,1.6h0ZM367.7,279.4l2.7.6-.6,1.4-1.4-.7-2,.3-1.9-1,.4-2.1h1.7c0-.1,1.2.4,1.2.4v1.1h-.1ZM371.4,277.1l-1,.3-.4-1.2-1.7-.6.4-.8,2.7,2.3h0ZM387.5,257.6l1.6,1.8,1,.5-1.3,3.8-.2,1.6-1,1.7-.8-.4.9-2.9-.5-1.1-1.7.3-.4-.9,1.6-1.4-.8-2-1.1-.2,1.5-1.6,1.2.8h0ZM390.4,258l-1.4-1.3,1.3-.6v1.9h.1Z"/>
  <path id="GE" class="st2" d="M972.9,547.7l-2.3.5.5.7h-3.5l-1.1.3-3.2-.3-5.3,1.3-4.4.3-1.3-1.2-1.9-.2-1.1-1.7-3.5-2.5-1.2-.4-.6-1.1-1.4-.3-1.4.4-.9,1.9-3.4-.8h-3.6l-1.1.9-4.3-1.3,1.9-3,.4-1.7-.4-2.4-1.7-2.7-3.7-8-1.1-1.2-4-1.4-1.1-1.6-3.2-2.1-4.1-.9-4.8-2.9-2.9-1.7.9-2.1.8-.2,4.8.9,1.5-.4,5.9,2.5,3.6.7,3.1,1.7,6,.5,2.8-.6h1.8l2,1.1,2.4-.2,3.2,1.2,1.5,1.6,3.5,1.4,2.8.8,3.2,1.5.2,2.4,2.5.4,4.3-2.1,2.1-.7,1.8.2,1.9,1.9.8-2.2,4.6,1.7,2.1,1.8h2.8l2.2.9-.2,4.2,2.9,1.4,1.6,1.2,3.4.7,3.1,1.5-1.2,2.1-1.2.3v1.3l1.1.8.9,1.5,4.5,2.6.9.8-.2,2-1.8,1.4-4.1-2-1.7.5-3.2-.9-1.4-1v-.7l-3.9-1.4-1.9-.4-3,2.5h0Z"/>
  <path id="GR" class="st2" d="M712.9,637.7h2.3l1.7-1,2.2,3.7h1.7l3.5-1,3.7.2,1.4,1,2.6.2,2.3.5,3.3-.7.4.4v2.8l1.3.2.7-.7,1.7-.6h1.8l1.6-.8-.4,3.5-.9.4h-4.4l-8.1.9-5.3.4-.7-.2-.7-2.2-3.3-1.1-6.2-1-1.5-.4-3.1.2-1.1-1-.4-1.8.2-1.9,1.4.3.4-1.4,1.9,1.1h0ZM756.3,638.8l-1.6-2.1,1.1-.5,1.2,2.4-.7.2h0ZM701.6,627.4l-1.4.2-.7-2.2.5-1,2.1,2.1-.5.9h0ZM764.3,631.5l-1.7-.4.4-1.8-.7-1.6,2.3-2.7,3.2-1.3.9.9-.9,2.5-.9,1.3.4,1-1.6.2-1.4,1.9h0ZM745.3,621.2l-1.5,1.2-.9-.6,1.9-1.2.5.6ZM751.5,619v-.7l1.3-1.1,2.5-1,1.2.6-2.5,1.4h-1.5l-1,.8ZM729.3,613.6l-.9,1.3-1.3-.7.4-1.2,1.1-.6.7,1.2ZM732.9,615.2l-1.1.6-1.4-2.2,1.9-2,.9.7v1.8l-.3,1.1h0ZM738.3,606.4l.6-1.6h1.6v1l-2.2.6h0ZM716.6,605.7l-1-.4.4-1.2,1.1.5-.5,1.1h0ZM748.2,602l2.8.7-.7,1-1.6.9-1.7-.9-1.2-1.2,2.4-.5ZM671.5,602.1l.4,1.2-1.1,1-1.6-1.2-1.2-1.8.9-1.1.9,1.2,1.7.7h0ZM724.6,602.8h-1.4l-2.4-2.2.9-1.4.9,1.2h1.3l.7,2.4ZM667.3,593.1l.3,1.8.9.3,1.3,1.6-.2,1.2-2.1-.8-1,.2-1.1-2-1.3.2.6-1.8h1.4l1.2-.7h0ZM738.1,595.6l-1.1.9-1.8-1.7,1.4-1.3-2.1-2.4v-1l2-.5,1.3.9.6,1.2.4,2.6-.7,1.3h0ZM667.9,589.5h-1.3l-.4-.8.8-2.4,1.1.3.2,2.5-.4.4h0ZM702.5,584.1l.9,1.7,5.5,2.5,2.8.3,1.7,2.6-.2.6,1.5,3.8,1.1.9,2.7.3.4,1.9-.9.8-1.9-.7-2.1-1.6-.4-1.3-2.2-2.9-3.6-.2-1.5-.7-.6-1.7-1.5-.9-2-1.9-1.5-1.1-3-1.1-.6-.7,1.9-1.3,2.1-.5,1.4,1.2h0ZM740.4,578.3v.9l1.8,1.5.7,1-1.2,2.1-4-.8-.8-.8,1.6-1.3-.9-.5-1.2,1.5-2.2-.7-.9-.9.7-1.4h1.5l1.7-.7v-.6l2.3-.2.9.9h0ZM659.1,576.7l-1.3.3-1.2-.8-1.2-1.9-2.2-2.2.7-1.1,1.6-.4,1.4,1.2-1.1,1.2.8.7.9,2.4,1.6.6ZM726.9,568.1l-.7,1.4v1.3l-3.9-.7-.3-2.3h2.2l.8.7,1-.9.9.5h0ZM729.3,561.2l-1.4.4-1.7-1.3,1.4-.5,1.7,1.4h0ZM717.4,558.2l-1.6.6-1.8-1.1,1.1-2.3h1.3l1,1.4v1.4h0ZM733.3,556.5l-.5-.7-2.1-1.2-4.6-.6-2.3-.9-.9.2-2-1-1.2.4-2.5,1.7-1.5-.2-1.6-1-2.2.4-1.7,1.9-1.8,1-1.8-.4h-2.3l-.2,1.1,2,2.1-.5,1,.5,1h2.1l2.5,1.4-.7.7-3.2-1.2h-1.2l-1.2,1.1,3.5,2.7.5,1.4-.6.9-1.5-.8-2.5-3.2-3.1-.6-.4.6,1.2,2.4,2.9,1.7-.6.6-3-1-1.1-1.6-.4-2-5.5-2.8-1.4-2.8-2.2,1.3.4,2-.6,3.8.4,1.3,3.5,3.7,1.3,2.7,2.6,2.1,2.6,3.2.7,1.8-1.3,1.1-1.3-.5.3-1.9-2.2-1.2-1.9,1.2,1.5,2.3.5,1.2-.4,1.3-1.6.8h-2.6l2.4,1.5,3.3,1,1.6,1.1h1.5l1.7,2.2,2.6.6,1.7,2.1,2,.5,1.7.8,1,2.1.3,2.9.6,2.1v1.7l-1,.5-1.3-1.6-4.2-3.6-1-.4-1,.7-2.9.5-1.9,1.3,1.5,1.3v1.2l.9,1.5,2,.4,2,2.4-3,1-1.1.7-.8-.5-.2-1.2-4.3-2.2-.6.6.7,2.4,1.3,1.6,2.2,4.3,1.3,3.7-.2,2.1,1,1.5v1.5l-1.6-1.2-2.2-2.5-.8-1.5h-2.2l-1.3,3.4.2,1.9-1.6-1.1-.2-2.9-2.1-2.8-.9-.4-1.3-1.9-1.5.6v2.9l-.5,1-2.2-1.9-2.3-3.5-.2-1.8,1.4-1.7-.3-1.2-1.6-2.5-2.1-1.5-1.2-.5-.7-1.6-2-1.3v-1l2-1.7,1-2.6,1.9.5,1.4-.2,2-2.4h1.6l3.9,2.2,4.2,1.2,2.1,1,1.2,1.1,1.6.3-.5-1.4.8-.4h2.1l.2-1.6-2-.6-.8.2-2.4-1.4-2.3-.8-2.2-1.5-1.2,1.3h-1.2l-3.4-.9-2.1.7-4.2.7-1.1-1.3-2.6,1-1-.7-1.9-4.2-1.7-1.9-1.2-.5-.2-1.9,1.5-.2,2.4.9.9-.6-.6-1.6-2.5-.2-1.8.5-2.8-2.2-1.5-1.7-2.2-1.1-1.7-3.4-2.6-2.6,2.7.9.7-.7.3-1.5.9-.7-1-2.2,1.7-1.3,1.9-.3.6-.5.3-2,1.2-3.1,1.7-.8.8-2.6-1.1-1.8v-1.1l4.6-.3.9-.6,2.3.6,2.4-1.3,1.7-2.5.8-.3,3-.4,3.3.6,2.9-1,.2-2.1,2-.3,3,.2,1-1,2.4-.2,2.6.2,3-1.1,1.9-.2.2-.9h4.2l1.6-.4,1.2,1.7,2.4,1.4.9-.6,3.7,1.2,1.7,1.1,3.4-.9,3.2-.4,1.8.3,2.5-1.2.2-.8-.9-2.7-.7-1,1.6-1.1,1.6.5,1.2.3,2.3,1.5.9,3.1-3.4,2.5.5,4.4-2.5,3.2-.8.4h0Z"/>
  <path id="HR" class="st2" d="M611.2,521.2l2.3.4-1.1.9-1.2-1.3h0ZM624.1,522.7h1.6l.6.8,6.2,3.8,1.7.7,1.2,1.9-4.8-3.1-4.4-2.5-3.1-.7-4.3-2-.5-.9,5.8,2h0ZM617.8,519.2h-6.4l-1.7-.3-.5-1.3,1.8.2.5.6,6.3.8h0ZM612.5,516.9h-2l-2.6-.7.3-1.1,4.8.6-.5,1.2ZM591.3,500.4l-.3.4-3.3-2.7-.3-1.9,2.8,2.7,1.1,1.5ZM586.4,493.9l-1.9-.2.8-1.1,1.1,1.3h0ZM582.2,495.4h-.9c0-.1-1.7-4.3-1.7-4.3l.4-1.2-.8-2,.9-.3.5,2.1,1,.9v1.6l.6,3.2h0ZM585.9,490.5l-1.5.3-1-1-1.3-.2-1-1,1-.7.5-1.2,3.3,3.8h0ZM635.4,475.8l-.7,1.5,1.6,2.7.2,1.6,1.3.4-.4,2,1.2,1,3,1,.9,1.5h-2.3c0,.1-1.7.5-1.7.5l.7,2.6-1,1.6-2.2-.2-1.3-2.2-1.1-.8-2.2-.2-2.6-.7-1.8.2-1.8-.3-2.2,1-1.6-1.3-1.7.6-2.8-.7h-2.5c0-.1-2.7-1.7-2.7-1.7l-1.5,1.2-3.2-.3-2.7,3.2-1.8-1-1.7-1.8-1.8-.4-1.2.6-.3,5v1.4l2,1.3,3.4,3.2,1.3,4,2.3,2.4,2.8,2.3,1.7,2,5,4.1,2.4,1.1.4,2.2,1.5,1.6,3,2.5-.3,1.6-3.5-2.8-2.6-1.5-3.1-2.8-3.8-1.1-2.7-1.2-3.3.6-1.8-.2-.7-2.2-5.8-3.9-4.3-4-.8-1.3,3.1-1.2-1.4-.8-3.9-3.4-1.2-1.6v-4.1l-.9-1.7-2.9-2.2-1.1-1.1-2.1-.7-1.4.9-.3,1.9-3,5h-1.3l-3.1-4.2-.5-1.9-1.3-3.9.7-.5.5.6,3.3.8,1.4-1.3,1.1.5h3.6c0-.1.6-.4.6-.4l1.2-2.2,2.6,2.1,1.5.7,1.3-.5,2,.7,1.6.2,1.2-.4-.8-2.3.7-.7-1-1.1,2.1-1,2.1-.6.4-1.1-.2-2.2-.9-.9.4-1.4,4.4-1.7.7-1h2v-1.7l.9-.8,2.5.6,2.9,1.2,1.7,1.2.9,1.3,2.7,1.8,2.2,2.2,1.3.7,2.5.6,1.3,1.3,3.3.9,4.9.2,2.5-.9,1.1-1.4,2.9-.4h0Z"/>
  <path id="HU" class="st2" d="M671,437.8h1.5l1.4,2.3,2.2.8.9,1.1,2.3.4.9.7.7,1.7-2.2,2.3-4.6,1.1-1.9,2.4-1.2,1v1.7l-1.3,1.4-.7,2.5-1.4,1.5v1.2l-1.6,2.7.2,1.3-2.1,1.5-1.5,4.7-1.3.9-2.6-.3-2.5,2-1.4-.5-3.2.9-1-.5-2.8-.3-1.1.2-2.9-.4-1,.3-1.5,1.6-2.2,1-1.6-.5-2.1,1.3-2.9.4-1.1,1.4-2.5.9-4.9-.2-3.3-.9-1.3-1.3-2.5-.6-1.3-.7-2.2-2.2-2.7-1.8-.9-1.3-1.7-1.2-2.9-1.2-1.9-2.2-1.4-3.3h-2.4c0-.1,1.8-1.8,1.8-1.8l2.5-.5.3-1.8-1.1-1.6.5-.7-.4-1.5,2.2-1.2.5-1.4-.5-1.1-2.6-.7,1.3-1.4,2.5.9,3.9-.3-.7-2,.6-1.9.6-.7,2.1.3,4.2,2.7,1.6.7h4.7c0,.1,7-.3,7-.3l.6-1-.5-1.3.4-1,1.4-.7,4.3-.4,2.4-.6,1-1.5.7-.2,3.5,1.4,5-2.5,1.6-3.5,1.8-.4h2.7c0,.1,2.5.7,2.5.7l4.6-.7,1.4.9,2.2,2.2.6.2,4.3-1.1h0Z"/>
  <path id="IE" class="st2" d="M329.3,352l.7,1.1-2.2.4,1.5,5.2.6.9v4.1l.9,3.2v2.5c.1,0-1.2,1.8-1.2,1.8l-.9,2.1-.2,1.8-1.6,2.1-1.5.9,1.6,1.5-2.8.8-2.6-.3-1.3.8-3.9.2-3.7.7-1.7,1.8-2.5.7-1,1-2.3.8-1.7-1.2-1,.2.2,2.1-2.9,1.3-1.8.3-1,.7-5.8,1.4-1.9-.5-3.3.8h-1.2c0-.1,1.6-1.9,1.6-1.9l1.6-1.3-3.8.6-1.4.5-.6-.6,3.2-1.9h-3.3c0,.1-3-.3-3-.3l-.4-1,2.9-2.3,2.4-.9v-.9c-.1,0-5.2.1-5.2.1l.5-1.1,1.7-1h1.8c0-.1,1.5.5,1.5.5l1.1-.8-.6-1.7,3.9-2.3,3-.3,3.3-.7,3.3-.8-2.4-1.2-2.3,1.8-2.6.3-1.9-.5h-2.1l2.7-2,1.6-1.7-.8-.7,2-2.3,3.6-1-1.6-1.3-3.9.2-1.4-1.3h-2.6c0,.1.4-1.1.4-1.1l-3.5-.2.5-1-.6-1.1,2.8-.6-.2-2,1.9-.8,2-.4v-1.1c.1,0-1.9-.2-1.9-.2l-2,.4.8-2.1-.8-1-.4-1.7-.9-1,2.8-.2,1.2-.5h4.7c0,.1,1.9,1.4,1.9,1.4l1.7-1.2,4.8.9.6-2.6,3.8-1.5,1.2-2-3.7.4-3.6-1,.7-.8,2.1-.7,1.9-1.6-.3-1.1,1.7-2.7,3.1-.8h2.4l1.6-.9,1.2,2-1,1,.6.9,1.2-.8-.5-2.1.9-1.3,1.9-.3.6-.8,3.2,1.7-2.5,1.5-.5.7-1.9.9-1,2.3-1.2,1.6-2.2.8h-1.6c0-.1-.2.7-.2.7l1,1.4-2.9.9-1,1.4,2.7,2,.2,1,2.1.4.8.7,2.9.3,2.4-1.8-.5-.9,1.9-1.6,1.3.5,1.8,2.7,1.4.5v1.5c-.1,0,2.8,0,2.8,0l2.1-.4h0Z"/>
  <path id="IS" class="st2" d="M240.3,177.9h1.2c0,.1,2.8-.7,2.8-.7l2.2-1.1.5,1.1-2.5,2.4,2.2.9,2,.3v1.7c-.1,0-1.8,1.6-1.8,1.6l.8.3,3.5-.5,1,2.3,1.5-.2,2.4.3,1.4,1.2,1.2-.3.5.9-.7,1.2-1.5.6,2.1,2.9v1.1l-1,.7h-1.3l-1,2.1-1.2,1.1-2,1-2.6-.5-1.1,1.5.2,1.4-1.3,1.3-5.3,2.1h-2.5l-2.6.5-6.2,2-4.7,2.8-2,.7-3.1.3-1.8.5-5.9.8-2,.5-1.2,1.1-.5,1.4-4,1.1-3.8.7-6.4-.5-5.4-1.3-4.5-.3-3.8-2.5-2.9-1-3.6-1.8-2.3,1.1-12.4.3-.8-.5-.2-2.1,1.1-.8,1.3,1.2,5-1.1,2.7-1.9,2.5-2.7-3.5,1.2-.2-1.9-.9-1.1-1.7-.8-.3-.8,1.1-.9-2.3-1.2h-2.6c0,.1-6.6-.4-6.6-.4l-3.8,1h-2c0,.1-.9-.9-.9-.9v-1.1l1.5-.3h1.8c0,.1,4.1-.5,4.1-.5l1.4-.6.8.5,3.6-1.1,1,.2,4-.2h4.4c0-.1,1.1-.9,1.1-.9l.4-1.1-2.8.9-3.7-.5-.6-.9,3.6-1.6,2.7-.8-.8-1.3-3.2.2-.7-.8-2.6-.4-1.8.3-.9-.5-2.4.6-5.2.9-3.3.9-3.1-1.1-2.4-.2,1.4-1.4h2c0-.1,1.7.7,1.7.7v-3.2c.1,0,1.3.3,1.3.3l2.8,1.1-.7-2.8h2.2c0,.1-2.2-1.5-2.2-1.5l.5-1,1.6-.3.8-1h2.4l2.3,1.1.2,1.4h2.1l1.1-.8.9.6.5,1.2h1.2l.4-2.2-3.6-1.1-.3-1.4h3.7c0-.1-1.7-1.2-1.7-1.2l-3,.2-1.4-.4,2.6-1.2h3.4l1.4.2,2.3,1.7,2,.6,3.1,2.3,2.2.9v1.2l.7.8-2.3,3.4.9.7-.8,1.6,1.9.6,1,1.7.9-1.8,1.5-1.9,2.3-1.3h.9c0,.1.9,1.1.9,1.1h.9c0,.1,1.4-1.9,1.4-1.9l.7-4.3,1.7-.9,1.8.7,1.3,1.6,2.6,2.1,1.8-.5v-2.3c.1,0,1.1-1.3,1.1-1.3l2-.3,2.2-.8,2.3-.2,1.7,1.4,1.2,1.4,1.7,1.1.7,1.8.9-.3-.2-1.7-1.4-2.6.3-.9,4.1.2,3,2.3,1.3-.3,3.6-2.8,2.3.8h1.8c0,.1,2.8-.7,2.8-.7l.8-1.2-.9-2.3.6-.4,2.6-.6h2.7c0,.1,2.6,2.2,2.6,2.2v1c-.1,0,1.5.8,1.5.8h0Z"/>
  <path id="IT" class="st2" d="M602.6,595.6l-1.2,2.5-2.8,4.3-1.5,5.1.3,2,1.6,1.4-.7.5,1.6,1.8v1.3l-1.7,1.9-.4,1.7v1.5l-2.8-.6-1.4.3-3.7-1.4-1.9-2.8-3-2h-3l-1.4-.5-2.9-1.9-3-1.4-2.6-2.1-1.7-.4-1.5-1h-2.9l-2.3-1.6-1.3-2.3,1.3-3.7,1.4-.8.9-1.2,2.3,2.3,1.8-.8,1.4-1.6h2.4l.5,1,1.4.3,2.5,1.6,1.4.4,3.4-1,3,.4,2.8-.5,1.7-.6,1.2-1,1.4-.3,3.5.3,2-1.2.8.2,2-1.2,1.1,1.1h0ZM524.3,554.1l.7.9,1.8,5-.6,1.6-1.3,2,.8,2.8-.6,11.5-.6,2.9-.9.4-2.9-1.2-1.5.3-1.2-.6-.3,3-1.8,2.1-3-.2-.7-.6-2.4-3.8-.4-4.3.6-1.3v-2.5h1.1v-1.8l-1.8-1.2v-1.9l.7-1.4v-2.6c-.1,0-.9-.9-.9-.9l-.8-2.3-2.2-2.4v-3.4c.1,0,3.5.6,3.5.6l1.3-.3,3.1-1.5,2.1-2.5,1.4-.5,1.5-1.8.7.9,2.2.8,1.2,1.5.9.5-.7,1.4,1,.8h0ZM532.6,523.3l.3,1.4-2.5.5-1.1-1.1,2.9-.2.4-.6h0ZM570.5,466.7l-.2.9-3.3,2.3.7,1.4,2.3.7-1.6,2.1.3,1,1.3.2-.4,2,1.9,1.1,1.5,1.3.2,1.3h-1.5c0,.1.7-.5.7-.5l-2-2.2-2,.9-3.2-.9-2.1,2-1.5.4-1.7,1.1-3.2,1.2-1.8-.4-1,.7-.4,3.1.8.6,1.5,2.6,1.7,1.1-.7,1.9-.9.7-1.3-.5-.3,1.7.9,4.5,1.4,3.2,1.2,1.3,2.7,2.2,2.7,1.1,5.1,3.7,2.8,1.1.7.7,1.8,2.8,1.6,3.2,1.8,5.1,1.3,2.5,2.3,2.9,4.8,4.1,4.3,2.9,4,1.9,3,.3,7-.4,2.6.7.4,1.2-.4.9-2.9,2.1v1.7l1.5,1.2,7.1,3.2,7.2,2.6,2.2,1.4,2.7,2.1,6.4,2.9,1.1,1.4,4,3,1.8,2.4.5,1.8-1.5,4.4-1.6-.5-1.9-1.3-3.1-5.4-5-.5-2.9-1.3-.7-1.4-2.3-.4-1.3.9-1.4,2-1.5,3-1.5,4.3v1.7l1.1,1.7,2.9,1,2.4,1.5,1.6,1.6.3,3.8.9,2.1-.9,1.3-1.9-.3-2.5.7-1.7,1.4-.7,1.4.5,3.4-.3,1.4-3.3,2.5-1.6,2.5-1,2.3h-4.3l-1.1-1.5v-2.2l.5-1.3,1.6-.7.9-2.8-.5-2,1.1-1.6,2.8-.7v-2.9l-1.4-1.3-1.4-5.1-2.4-4.3-1.4-3.8-1.1-1.8-1.4-1-3.7-.3-4.6-2.6-.3-1.1.6-1.1-1.1-2.8-2-1.7-2.6.6h-1.2v-1.6l-2-1.3-2.7-.2-.7-.7-2.6-4-1.7-1.7h-2.3l-3.9-.8-2,.7-3.2-2.6-2.8-.9-5.7-5.3-1.8-2-3.5-2.2-2.3-3.2-1.8-1.2-4-1.4-.3-1.3-3.1-3.1-1.7-1-1.3-2.1-2.5-.5v-2.7l-1.1-3.5-1.7-2.2-1.2-5.3-.8-1.5-1.8-1.1-4-1.2-5.7-3.4h-1.1c0-.1-3.4-1.4-3.4-1.4l-2.1-.2-2.6,1.2-3.1,3.2-2.5,3.4-.9.6-3.4,1.2-3,.5-.2-1.5,2.1-2.6-.3-2-3.3.6-5.1-2.4-.9-.9v-1.4c-.1,0-.8-1.3-.8-1.3l1.4-2.5.8-.7-.5-1.7-3.2-1.4-1.5-3.1.8-.4,1.9.2,1.7-1.3,1.2-.3.8-2.5-1.8-1.6-1.7-2.6-.9-.6v-1.6c-.1,0,2.5-1.7,2.5-1.7l1.4.7,2.4-.5,2.6-1,3.1.8,2.4-1.4,1.6-2.2-.6-1.5,3.4-2.9,1,.6.2,2.5,2.4,2,2.2.6-.4,1.2,1.3,1.2.9,1.4,1.2-.7-.7-1.7.2-1,2.2-2.6.5-1.1v-2.9h2c0-.1.8,2,.8,2l2,.8,2.9-1.1h.7c0,.1,1.4,2,1.4,2l1.2-.3-1.5-3.5.6-1.8,1.3-.3,1,.9,1.9.2-.5-1.8.5-3.1,3,.3.9.8,2.1.4,1.1-.4,1.2-2.2,1.4-.6,3.4-.3,3.1.2,4.7-1.5v2.3l3.1,3.5,1.1.5,8.6,1.5,4,.3,2.6.5h0Z"/>
  <path id="LI" class="st2" d="M519.4,458.5h-1.2v-1.8l.5-1.5,1.1,2.5-.3.8h0Z"/>
  <path id="LT" class="st2" d="M707.9,328.5v1.8l-.7,3.1,3.9,1-1.3,1-.4,1.1h-3.6c0-.1-1,1.9-1,1.9l-.8.6-2.6.6-1.1,3,.4,2.3-1,1.5-.5,2,1.9.5.9,1.1v1l-2,.2-1.7-2.3-1,.7-2.1.5-1.4,1.2-2-.2-.8,2.6h-1.8c0-.1-3.3,1.2-3.3,1.2l-1.6-.9-3.7.3-1.6.3-2.9-.4-.8-3-1.1-.9-4.5-2.2-2.3-.7-.6.6-1.3-2v-2.1l1-3.1-1.3-1.3-1.4-.6-.9-1.3h-5.7c0-.1-2.4-.7-2.4-.7l-3.9-1.4-2-1.2-1.8.2-.6-1.2.2-1.6-1.1-2.4-1.6-2.9-.7-3.8,2.8-1.7,3.6-1.9,4.7-1.4,5.9.5h4.3c0-.1,1,.8,1,.8l1.6-.7,4.9.5h2.3c0,.1,3.7,1,3.7,1l4.6-.4,1.7-1.3,2.3-.2,2.4,2.9,6.1,1,.9.4,5.4,3.1,2.6,2.1,1.5.7,2.3.5h0Z"/>
  <path id="LU" class="st2" d="M475.4,411.7l.3,2.2,1.5,1.6,2.8,1.1v1.4l-.9.9-.6,3-1.3-.7-2,.6h-1.4l-2.1-1.2,1.1-1.7-2-2.4.2-1.7,1.4-2.5,1.3-1.3,1.7.7Z"/>
  <path id="LV" class="st2" d="M711.6,301.2l1.9.3.5,1.1,3.2,1.7.7,2.2-.8,1.6-.3,3.1,1.8-.3,1,.6.3,1.2,1.7,2.1,1.3.8,1.9,4.2-.3,1.7-1.3.2-1.4.8-2.5,2.4-.4,1.7h-3.1c0-.1-3-.5-3-.5l-1.1.3-1.2,1.5-2.6.6-2.3-.5-1.5-.7-2.6-2.1-5.4-3.1-.9-.4-6.1-1-2.4-2.9-2.3.2-1.7,1.3-4.6.4-3.7-.9h-2.3c0-.1-4.9-.6-4.9-.6l-1.6.7-1-.9h-4.3c0,.1-5.9-.4-5.9-.4l-4.7,1.4-3.6,1.9-2.8,1.7-.8-2.8-.6-5.5v-2.8l2-1.6.8-1.2.6-4.5,2.5-3.6,2.4-.4,3.1-1,3.5-.9,1.4,1.9,4.9,3,1.2,1,2.3,3.4,4.4,1.8,3.1-.6,3.6-2.4,1-1.1v-1.1l-1.2-4.7-1.1-2v-1.3l8.5-2.8,1.5,1,1.1-.7,5.6,2.5,2.3.5.6.7,3.5,2.7,2.8,1.1,4-1.2,3.4,1,1.9.2h0Z"/>
  <path id="MD" class="st2" d="M751.4,483.2l-2-2.3.9-.7-1.4-5v-2.6l.8-4.8-.5-2.9-1.4-2.3-1.4-2.9-3-2.1-1.3-1.7-2.1-1.8-2.5-3.2-1.5-1.3-3-4.9-2.5-3-2.5-1.6h-2.1l.2-.6,2.3-1.4.7.2h4c0,.1,1.2-.9,1.2-.9l.8.3,1.6-1,3.5,1,3.6,2.4,2.5.3.6,1.2,5.6.6,1.4,1.9,1.4,1,1.4-.7,1.4,1.4.6,2.3-.6,3.1.6,1.2,2.3,1.2,2.9,2v2.4l.9,1.9,2,1.3,2.1.8,1,1.6.2,2.9,2.9,1.7-.6.7-2.9.4-1.2-1.3-1.6.6-2.1-.8-1.9-.2-2.1-1-2.5,1.6.5,2.1,1,1.7-.4,2-2.3,1.7v1.3l-2.5,2.9.5,1.4-.4,1-2,.2-1.1.7h0Z"/>
  <path id="MK" class="st2" d="M683.8,531.8l3.3,3.2,3.4,1.8,1.7,3.3.9,1-.5,1.7v4.2l-2,.3-.2,2.1-2.9,1-3.3-.6-3,.4-.8.3-1.7,2.5-2.4,1.3-2.3-.6-.9.6-4.6.3-1.3-1.1-1.6.2-1.3-2.4-1.2-1.1-1.2-2.2-.2-1.9-.7-2,.8-.8-.3-2.1.5-2.6,1.7.3.5-.8.2-2.6,3.4-1.5h1l1.6,1.1,1.5-1.9,2.1-.4,2.2-.3,2-.9,1.9.3,2.3-.8,1.4.7h0Z"/>
  <path id="ME" class="st2" d="M642.4,512.9l.4,1.2,2.6,1.7,1.9,2,3,1.6,2.1.5,5.3,2.9v1l-1.5.4-.2.7-2,.4.9,1.5-.2,1.3-3.4,1.2-.8-2.1-1.1-.3-3.2,5.3-.8.3-2.5-.2,1.6,1.9,1.7.8.3.6v3.1l-2.1-1.2-.9-1.8-3.1-2.9-3.5-2v-1h-1.5l-1.2-1.9,1.1-1v-.8l-1-1.6-.6-3,.5-.7,1.7-.2v-1.5l.4-1.7,2-1.7,2.3-.2-1.4-2.2,3.2-.5h0Z"/>
  <path id="NO" class="st2" d="M458,260.9v1.7c.1,0-.9-.1-.9-.1l-.7-1.1-.2-2,.7-.5,1.1,2ZM456.2,249.8h-1.8l.3-1.3.9-.3.6,1.6ZM488.7,217.9l-2.3-.2-1-.8,2.8-.8.7.5-.2,1.3ZM492.3,213.3l-.3-.9,2.7-.6.9,1-3.3.5h0ZM520.3,196.7l-4.2.3-.3-1.1,2.1-.8h1.2l1.2,1.6ZM527.1,186.2l-2,.3v-1.1l1.9-.3v1.1h0ZM531.2,180.5v-1.1l.9-1.2,1,.4-.3,1.5-1.6.4h0ZM534.3,155.6l-1.5.7,1.1-2.6,1.1-.7.4,1.5-1.1,1.1ZM542.8,150.4l2.3.2-.5.8-1.4.3-1.1.8-1.9.2-1.9,1-1.6.3-.4-1.2.9-1h1.3l1-1.2,3.3-.2h0ZM555.2,141.4l2.2,2.1-.3,1.5-1.2.7h-3.3c0,.1-1.6-.8-1.6-.8l-2.2.6-1.6-1.1,1.6-1.4,2.6.4.5-1.7,1.7.3.4-1.5,1.2.9h0ZM561.5,146.4l1.3-1.1,1.5-.4.6-2.2,1.8-.5,1.6,1,.9,1.2-.2,1.1-3.1,1.2-2.5,2-1.6-.2-.7.7-2.4.6-1.7-.9-.9.9-1.4.4-1.2-.4-2.9,1.5-2.8.3-1-1.1,3.1-1.9,5.1-.6,2.9-2.3.4-2.5.6-.9-1.3-.6.2-1.7,2.4-1.7,1.3-1.4,1.5-.3.9,1.1-1.1,1.4-1.6,1.2,1.1,1.5.6,2.4-1.4,2.2h0ZM577,132.7l1.4.8,1.5-.3,2.3.7,1,1.5-1.2.9.4,1.7-3.8.5-.9-.5-1.5.9-1.4,1.4-2.2-.6.2-1.6-.3-2.3.7-.5,2.9.3-.4-2,1.3-.9h0ZM701,130.1l-1.8.4.2-1.8,1.6,1.4h0ZM608.6,126.3l-1.3.4-1.8-.3-.7-1,2.2-1,1.7.3v1.6h-.1ZM593.5,126.6l1,.7,1.5-.5,1.1,1-1.4.8-.8,1.2h-2c0,.1-2.9,2.4-2.9,2.4v.8l-5.1.5-1.5-.3,1.7-2.7h1.7l1.7-.8-.3-.8,2.5-2,.6-1.7,1.4-1,.8,2.4h0ZM598.3,124.6l1.4.2,1.3,1.6h-2.3l-2-1.8s1.6,0,1.6,0ZM635.6,120.3l.5,1.1-3.3,2.1h-1.6l-2.1-1.1v-.8l2-.9h.9l2.7-1.3.9.9h0ZM639.5,120l-1.8.5-1.7-.9-.2-1.6.8-.3,3.2,1.2s-.3,1.1-.3,1.1ZM633.1,116.8l-.4.8-2.7,2.1-2.2.7-1.8-.3-.8.6h-2l-2-.6-2-1.2h3.5l.6-.6h1.5l2.8-.4,1.1.3,2.1-1.4h2.3ZM693.7,140.3l-1.7-1.3v-.7l3.2-2.9.7-1-2.6-2.7-3.6-.8-4.2-1.1-4.2-2-1.8-1.2-2.9.3-3.5,1.6-.9.2-3.8-.4-2.1.2-1.7,1.8-2.6,1.7-.7,3.8-.6,1.7.7,3.2-1.5,1.4-2.1.3-1.6,1.3-.5,1.7-1.3.6-2.6-.8-3.9-.8-3.6-1.1h-1.5c0-.1-1.2,1.1-1.2,1.1l-3.7.9h-1.8c0,.1-.8-.4-.8-.4l-6.9-.6-1.4-1.8-7.9-5.5h-3.6l-1.9,1.1,1,1.4-.5.6-1.9-.4h-2.1l-.5.4-5.1.2,2.6,1.6v2l-1.3,1.9-1.6.9,2.9.9-2.5,1.6h-1c0-.1-8.6-1.8-8.6-1.8h-2.9c0-.1-4.1-1-4.1-1l-2.1.5v.8l.8,3.6-2.1,3.1-6.3-1.8-1.5.9-3.7,1.9-1.5,3.5-1.1,1.1-2.7.6-.5,1.1,2.7,2.3,1,1.3-.2,1.4-1.5,1-3.3,2.9-3,2.9-1.3.9,1,2.5-3.3,1.5-2.4.5-3.8.4,1.4,3.9-.6,2.7v4.7l-3.4,5-4.4,5,4.7,1.6,1.1,2.9v1.2l-1.6,2.2-7.1-.9-3.3.4-3.3,1.5-3.5,3.8-1.2,1,.5,1.5-2,2.8,2.7,4.1-1.1,1.1.6,2.8v1.8l2.4,4.4v1.6l-.9,6.4,3.8,2.1,1.2.4,3.4,2.7-.4,1.9-1.3,2.5h-2.4l-1.8.6.3,1.6,3.1,4.9.5,1.4-.6,2.1v2.8l-2,2-1.3.8-2.6.7-.9,2.4-1.5,1.5,1.6,4.4-.6,3.9-.7,1.4-1.9.2-1-1.8-.4-1-6-1.2-2.3-2.9-.4-3.1-2.5,1.2.6,1.1v2.3l-2.5,3.9-1.1-.2-1.3.8-1.3.2-.6-1-1.1.2-.8,1-3.4,1.3,1,.7-1.7,1-.6.9-2.7,1.5-4.3,3.9-2.3,1.1-1.6,1.2h-1.4l-1.8.9-4.6.9-3.1-.4-2.1.4-1.1-.7v-1.1h-1.2c0-.1-.8,1.1-.8,1.1l-1.6-.4.7-2.4h-3.1c0-.1-3.8-1.7-3.8-1.7l-.9-.8-3.1-1.3-1.4-1.4-.8-1.6.3-3.6.6-.5,2.7.8,2.8,1.3v-1.2c-.1,0-2.5-1.6-2.5-1.6l.8-1.8-.2-1.6,2.6-2.1-.4-.7-3.4,2-3.1.9-1.1,1.2-1.1.6h-2.1l-.5-.9.5-3.3,1.2-2.7,1.8-1,3.4.7,1-1,1.3-.2,2.4-1.2-4.1.5-1.2-1,2.8-2.4,1.2-1.4.3-1.5,2.2-1.7,1.8-.8,1.6.6,1.5-1.9-5,1.1-2,1.1-2.7,2.8-.2,1.1-2,.9-1.5,1.5-.6,1.2-2.8,1.9-1.4.3v-2.4l1.1-2-.3-1.6,3.2.2,1.8-1.2h-2.7l-1.4-.7-1.2-1.5-.6-1.9,1.1-1.8-2.2-2-.5-2.2v-2.5c-.1,0,.8-.5.8-.5l2.1.4,2.4-.2,5.2-.9,3.4.6h1.4c0-.1,2-.8,2-.8h1.9c0-.1,2.2,1.1,2.2,1.1l.7-.5,5.4-1.2-3-1.5v1.4c.1,0-3.5.3-3.5.3l-3.2-.6-1.3-.6-.5,1.3-1.1.3-3.4-.5-4.7.3-2.1.7h-1.4c0-.1-2.5-1.3-2.5-1.3l-.9-.9-.3-2.6,2.8-.3-1.9-2.3-1.9-1.3-.2-1.4.7-1.3,1.5.2h3.8c0-.1,6,1.4,6,1.4l4.9-.3-.8-.6h-2.9l-7.2-1.3h-2.2c0,.1-1.2-.2-1.2-.2l-.7-1,.4-1.9,1.1-.4,1.2.6,1.9-2.3,1.9-1,2-.5,2,1h1.3c0-.1,4-.9,4-.9l-1.3-.5-3.5.5-.2-.5,2.4-2.3,4.2-.4,5.9.5,2.3.8.4-1.8,5.3-1.4-6.8.8-1.8-.5-4.9.7v-1.3c-.1,0,2.2-2.3,2.2-2.3l4.1-.9,1.9-1.1,3.1-.2,2.6.3,1.2,1.3,4.4,1.7-5.1-4,1.1-1.7,3.3-.4v-1.6l-2.2-.3v-1.2l1.9-.9,2.8-.7,3.2.8-.6,1.3.9.5,1.7-1.5,3.9-.8,2.8,2.1.5,1.1,1.1-.5,2.7-.5,2.7.3,1.8-.2-1-1.3.4-1,2.4-1,1.7-.3,2.6-1.2-.8-1-1.4-.3,2.9-1.5-1.7-.6-2.4.9-1.6.9,1.5,1-1.1,1.1-6.1,2.8-3,.8h-1.4c0-.1-1.9-2.6-1.9-2.6h-2.1c0-.1,1.3-2.3,1.3-2.3l1.6-.8,1.4-2.3,2.3-1.3,3.2-3.3,2.8-1.1.9-1.1,3-1.5,3-.9.3-1-2.7.9.4-2.1,1.4-1,6.8-2.8,1.6,1.3,2.1-.2,2.3-1.6-.3-.7-2.1,1h-1.5l-.4-.6-2.1-.5-.3-1.2,1.3-2.8,3.4-3.3.5-1.3,1.3-.7,1.7.2-.2-1.1-2.1-1.1,6.2-1.1h3l2.4-.9.5-1-6.4,1.1h-2.4c0,.1-.8-2.6-.8-2.6l.2-1.5,1.9-2.2,1.4-.2,1.7-1.1v-1.5l2.4-.8,2.1-2.1,2.3-.5,1.4.2,3-.7h6.6v-.7l-6.3-.3-3.5.2-.4-.6,2.8-2.7,2-1,1.7.2,1.8,1,.6-.8-1.6-1.5.7-1.5-2.6,1.1-1.8.3-.9-2,2.3-2h2.3l.3-1.5,3.3-1.3,1.9-.2,1.5-.6.6.4.9,2.3,1.5.3,1-.8-1.3-1.1-1.1-1.8,2-1.5,2.3-.2,2.6.7,2.3-.2.9-1.2h-6.3c0-.1-.8-1-.8-1l1.2-1.2,2.2-.8h2.5c0-.1,2.4-1.5,2.4-1.5l.9-1.1.3-1.6,1.4-1.3,3.9-.8-.6-2.2.8-1.4,1-.6,2.1,1.5,1.8.5-.5-1.4.3-1.2h2.1l1-.5.3-1.3,1.4-1.2,4.7-.7.5,2.5.7,1.4.8-2.8,1.6-2.1,2.4-.9.9,1.1-.4,4.3-1.9,2.4,1.5-.2,2.5-2.3.6-1.2-.7-2.8.6-.8h3.5c0-.1,1.9.3,1.9.3l.7-1.5h1.7l1.8.8,4.1,1.4-1.3-2.2-1-.8-2.1-.5-2.2-1,1.2-1,2.4.3,2-.8,2.2-.2,1.1.6.8-1,2.5-.5,2.8.9,1.6,2.7,2.4,1.4v-1.4l.5-1.9,2.3-2,2.1-1h1.4l2.9-3.5-1.6-1,3.3-2.3h1.1l5.4,2,1.5-.9,3.4.8-.8,1-3.1,2.9-.5.8v2.2l-1.3,1.4.8,1.4,1.6-.4,1.8-1.3v-1.3l4.4-3.7,1.9-2.1,2.3-1.7,1.5-.3.9,1.1-.2,1.5.2,4.3,3.7-1.4,1.1-3,1.1-.7-.8-1.4.4-1.1,2.3-1.3,2.2.4,3.3.3,2.7.8.2,1.4-.8.9-2.9,1.1.7.7,2-.6.9,5.5.9-2.1,1-.7v-1.5l.9-1.9,1.8-1.3h2.7l3.3,1.7,2.5.3,1.8.8,2.4-.7,2,1v1l3.9.3,3.8,1.6.6,1.6-4.4,1-1.8,1-3.3.4-11.5-.7.4.7,8.3,1.5.6.5.4,2.1,1.8.7,3.5-.2v-1.3l3.2.6,3.8.2,1.1,1.7-.3,1.5h-2.4c0,.1-4.2-1.3-4.2-1.3l-.4,2.3-1.1.9-5.8,1.3-1.1,2.6-2.2,1h0ZM653.2,112.6l3.7.5,2.2,1.4-3.6.5h-1.7l-2-1.9,1.4-.5h0ZM313.6,116.5v-1c-.1,0,4.4-1.5,4.4-1.5l1.9-1.4,3.4-.5-.2,1.8-3,.8-3.3.5-3.2,1.3h0ZM582.8,71.5l-1,.5-1.9-.8-.8-1.2h3l.7,1.5ZM592.4,21.4l3.9.2,2,1.9,1.4,2,1.3.2,4.7-.4,3.4.7-1.4,1.1v1.2l5.5,1.3h1.8c0,.1,3-.3,3-.3l6.5,1.7-6.6,1.1-2,1.9-3.7,1.3h-2.6l-2.3,1.3h-2.2l-1.5-1.8,2.2-1.3-3.1-.4-1.2.5-10.5,1-1.1-.2-.9-1.2,2.8-.6.2-1.1,2.5-2.4-5.5-1.6-2-1.2-.8-1-2.5-.9v-1h-1.7c0,.1-.4-1.1-.4-1.1l10.8-.9h0ZM638.6,20.8h-1.3l-2.6-.8.7-1,3.2,1.8h0ZM501,21.2l3.5,1.5,1.9.5,2.3,1.5-.7.9-2-1.2-3.6-1.3-2.3-.2-3.3-2.5-1.5-.8-.8-1.7,3.6.7,1.6,1-.3.8,1.6.8h0ZM656.6,17.8h2.7v.7l-7.3-.4-3.8.7.4-.9,2.4-.6h3.7c0-.1,2,.5,2,.5h-.1ZM546.7,7l1.4-.6,5.4.8,2.5.9,1.3,1-1.9,1.9,1.7,1,3.2-1.7,2.7.3,1.7.9,1,1.1-.2,1.4,3.1,1.1,3.4-.2,2.4.3,1.5,1,1.9-.2.2-.8,2.6.2,3,.8-2.1.9,2.1.8,3.4.6,2.1.6-1.5,1.4h-3.2l-2.9.3-5.4.3-3,1.6-2.5,1.8-.4,1.6.6,1.1-1.5.5-3.3.2.2,3.9-.8,1.9-3.3.3-1.8,1.1-1.2,2.1-2.1,2,1,1-2.1,1.9,1.2,1.8-1,.6-2.1.3-2.2-.3-2.3-1.1-6.7-2.2-4.3-2.4-6-1.3-3.3-1.6-1.5-1.3.3-1.4,2.8-.2,2.9.7,1.7-1.9,11.3-1.1,7.3-.2-1.9-1.3-6.9.7-4.3-.2h-2.1c0,.1-2.1.7-2.1.7l-4.3.5h-4.6c0-.1-2.9-1.1-2.9-1.1l-1.3-2,1.2-.6h3.8c0,.1,6.4-.8,6.4-.8l3-.8h3.1c0-.1-.5-.9-.5-.9l1.8-.4,2.4-.2h5.6c0,.1.2-.5.2-.5l-2.6-.6-.9-.6,2.6-1.8h-2.2c0,.1-3,1.4-3,1.4l-1.8.5-4.6.3-1.7-1.6.9-1.2-.8-.7-1.3,1.3-2.1.3-2-.9-1.9.5.7,1-.6,1,2,.9-2.3.6-2.1,1.1-3.9.2h-4.5c0,.1-4.6-1.5-4.6-1.5l-2.2-1.2-1.8-1.2-2.7-.6-1.7-.8-.4-1.1-1.4-.7-.7-1.2h4.4l-1.7-1.8.5-1.6h-3.4c0,.1.4,1,.4,1l-2.2,1-1.2-.2-2.3-1.9-2.4-2.4.4-1.3-1.2-1,1.5-.7,2.5.9.8-.7,3.8-.4,4.6,1.1.4-1.1,4.2.5,3-.6,5-.3,2,.4-1,1.1-6.3.3-4,1.3,5.7-.2h1c0,.1.6,1.2.6,1.2l3,.5,2.3,1,.8-.5-.6-2.2,4.4-2.3,2.1.4,2.1.9,4,3,2.3,1.9,6.1,2.8-.7-1.5-4.2-4.5-.9-1.7.9-1.7,1.1-.5-.4-1.3,1.3-.5,2.4.3,2.6,1.3h0ZM681.4,4.7l-8,.4-.9-.3,15.7-1.4,1.7.5-8.5.8ZM562.5,2.8l-1.8.6-3.2-.5.9-.7s4.1.6,4.1.6ZM581.1,3.3h5.6l1.5,1,5.5,1.1.8-1.5-.6-2.2h1.9c0-.1,1.7-.7,1.7-.7l3.1.3.2,1.3-.5,1.4h2.1l2.8-.2,1.9-1.1h2.4l1.3-.5,1.4.6,8.2.7,3.3.6h5.2l3.7.2,2.8,1,1.1,1.7-.9.4-6.7,2-1.6.7-2.4,2.3-4.1.7-3.5-.3-3,.7-1.9,1-1.5.2-9.2-.4-2.2-1.1,1.2-.9-8.2.3h-9.2c0-.1-1-.6-1-.6l-5.6-.5-4.2-1.1,1.1-.5h5.8l-.7-1.5h-2.9c0-.1-1.8.3-1.8.3l-4.3.2h-4c0-.1-1.9-.4-1.9-.4l-3.8-1-.7-.8,2.8-.4,2.1-.7-4.5-.3-1.9-.3-.6-.9,5.9-.2,5,.8-.7-2.2,3.9,1.1.2-1.1-2-1.4h2c0-.1,4.5.6,4.5.6l5.1,1.6h0Z"/>
  <path id="PL" class="st2" d="M666.8,348l.6-.6,2.3.7,4.5,2.2,1.1.9.8,3,2.1,5.1,2.9,4.9,1.7,3.6.9,3.9-.6,1.6-4,1.7-.8.5-2,2.7v1.2l3.3,1.3,1.8,1,.8,1-.2,2.4.4,1.1-.8,1.5v1.3l1.1,1.6,1.2,1.8v1.3l2.7,2.8,1.9,2.8,1.4,1-1.2,1.3,1.8,2.6v1.3l-1.1,1.8-3,.5-4.8,4.6-2.4,2.7-3.4,4.4-.6,1,1.5,3.8v1.8l1.8,1.4-.4.9-3.3-.7-.9-.2-5.7-1.9-.8-1.4-1-.7-3.1-1-3.6-.3-3.2.2-1.4,1.5h-1.8c0-.1-2.4-1.1-2.4-1.1h-3c0,.1-2.3,1.1-2.3,1.1l-1.1,2.1-1.7-.6-1.4.4-.6-2.7-1.4-.4-3-3-2.2,1.3-1,1.7h-2.2l-.5-1.5-1.3-.2-.5-1.6-2.8-2.2-.5-1.8-2.7-.8-.5.2-3.5-1.8-1.8,1-1-.6-2.7-2.3,1.4-.5v-1.6l-3.6.7-3.3-1.9-2.2-.6h-1.3l1.7,2.4-3.5,2.5-1-.4-1.5-1.9-2-1.8-1.6-.9,1.6-1.2.7-1.1-1.8-1.2-3.2.7-.8-.9-2.7-1.1-4.6-1.1-1-1.1-.3-1.1-3.3-.8v1.9l-2,.4,1.6-3.6.4-2.3-1.6-3.2-2.2-.9v-1.6l-1.9-3.1.8-1.1.7-2.6-.8-1.9-2-2.3.6-2.6-1.4-1.7-3.3-2.1-1.6-1.4.7-1.6,1.9-1.8.3-2.7-1.8-4.1-.7-2.6,2.8.9.7-.5v-1.8l-4.2-.7v-1.2l1.9.4,3.8-1.4,6.5-1.8,6.9-1.7,3.3-.5,2-2.2,1.9-1.7,3.8-.7,1.3-.8,2.8-1.2,6.6-1.2,5.5-.4,5.4,2.3-.9.3-3-1.2,2.2,3.5,1.1,1.2,2,.9,1.7.3,4.9-.5,2.2-1.1h.5c0,.1,6.6.5,6.6.5l22.9.9h7c0,.1,0,.1,0,.1Z"/>
  <path id="PT" class="st2" d="M306,611.9l-1.2.2-4.5,2.5h-1.3l-2.5-1.1-4.5-.4-1.5-.3-1.8.7h-1.5l-1.1,1-.8-.3,1-2.1,1.6-4.1v-2.6l.4-2.2-.3-2.1-.7-1.4,1.1-3.5v-1.8l-.9-2.3,2.8.3-1.7-1.4h-1.5l-2.3.9h-1.5v-1.3c.1,0-.4-1.8-.4-1.8l2-.6,1.6-1.7-.3-1.6-1.2,1.1-.6,1.4-2.8.7-1.5-.5v-1.9l.6-1.7.4-2.3.8-2.2-.2-1.4,1.6-1.3,1.4-1.9,4.3-8.9-.6-1,1.7-6.6,1.2-2.3.6-4.3-.2-2-.7-2-.7-4.3v-1.4l-.9-1.8v-1c.1,0,1.5-1.7,1.5-1.7l1.2-1.1,1.9-.9,4.1-1,1,1.8-1.3,1.9.9,1.3,3-1.1h2.9l2.2.7h1.4l2.5-.9.8-1.4,1.5.5h5.2l.7,1.2v3.1c.1,0,2,.2,2,.2l1.9.9.3,1.1-2.5,2.5-2.1,1.1-1.6,1.4-1.1,1.6-2,1.6.8,2,.4,3.5-.4,3.8.4,1.1-2.7,2.1-.2,1,1.4,1.3v1.9l-1.7,3.5-1,.5h-4.3l-1.1.3,1.1,1.9,1.4,1.2.3,1.9,1.6,3.2,1.7.4.5.8-.6,2.4-3.2,3-.9,4,3,4.3,1.7-.2-.7,2.4-2.1.6-3.5,4.3-.8,2.2,1.1,6.4h0Z"/>
  <path id="RO" class="st2" d="M751.4,483.2l1.5,1.6,1.8.9,4,.9.6-1.2.9.3,1.6-.5,2.2-1.3,2.2-.2,2.2.7,1.9,1.8-.2,4.3-.7,2.1-6.2,1.3.4-.6-.7-2-1-1-.9,1.1.6,1.7-.7,1.4-.2,2.4.6.9-1.6,2-.5,1.3.8,4.8-.4,3.7h-2l-2.6-.5-2.2-.7-2.5-2.6-1.7.5-.9-.6-3.2-.4-4.5-2.3-2.9.4-4.4.9-3.2,1.2-3.3,2.1-1.2,1.6-1.6.9-2.3.6-4.2-.2-9.4-1.7-2.5.5-3.5-.4-5.3-1-3.9-.3-3.7.6-.9-1.8,1.8-2-4.3-2.5-.8-1.2-1.6-.9-.5-1.7,2.5-1.8-3-1.6-1.7.5-1.7,1.8-1.3.2-1-1.2-1.5-.7-3.5-.7-1.5-1.2-2.1-.6.2-.6,1.8-.8-2.3-1.1,1.5-2-.9-1.1-2.6-.8-3.8-1.9-2.2-1.8-.4-4.1-.8.2-1.8-2-2.9-1.7-1.7-2,3.2-.9,1.4.5,2.5-2,2.6.3,1.3-.9,1.5-4.7,2.1-1.5-.2-1.3,1.6-2.7v-1.2l1.4-1.5.7-2.5,1.4-1.4v-1.7l1.1-1,1.9-2.4,4.6-1.1,2.2-2.3,2.1-.9.9-1.2h.7l2.7,1.5h2.7c0-.1,6.9,1.3,6.9,1.3l3.6-.7,1.2.3,4.3,3.3,2.1-.5,1-1.2,3.4-1.3,8.4-1.2,1.1-1.9.2-1.4,3.7-.8h2.1l2.5,1.6,2.5,3,3,4.9,1.5,1.3,2.5,3.2,2.1,1.8,1.3,1.7,3,2.1,1.4,2.9,1.4,2.3.5,2.9-.9,4.8v2.6l1.5,5-.9.7,2,2.3h0Z"/>
  <path id="RS" class="st2" d="M651.6,473.1l1.7,2,2.9,1.7,1.8,2,.8-.2.4,4.1,2.2,1.8,3.8,1.9,2.6.8.9,1.1-1.5,2,2.3,1.1-1.8.8-.2.6,2.1.6,1.5,1.2,3.5.7,1.5.7,1,1.2,1.3-.2,1.7-1.8,1.7-.5,3,1.6-2.5,1.8.5,1.7,1.6.9.8,1.2-.9.7-.2,1.9-2.1,1-.4,2.3.6,2.4,2.4,3.9,2.9,1.5,1.3,1.6,1.6,1-.3,1.4-1.6,1.7-1.1,1.6h-1.8l-1.1.7v3.3l1.4,2.9-1.1,1.7-1,.3-1.4-.7-2.3.8-1.9-.3-2,.9-2.2.3-.6-1.3,1-.9,1.2-3.2.2-1.2-4.7-1.2v-1.3l-2.2-1.2-.2-.7-2.3-2.1-2.8-1.3-1.1-1.3-1.7.9.6,1.6-.4,1-1.7,1.3v1.4l-1.5.5v-1l-5.4-2.9-2.1-.5-3-1.6-1.9-2-2.6-1.7-.4-1.2.7-.8,2.5.3.2-2.2-3.2-3.7.5-.8h3.1c0,.1.3-.7.3-.7l-3.3-2.9-2.4-1.2-.5-.8v-2.6l1.7-2.7.5-2.5-1.5-.8-2.8.7,1-1.6-.7-2.6,1.7-.4h2.3c0-.1-.9-1.6-.9-1.6l-3-1-1.2-1,.4-2-1.3-.4-.2-1.6-1.6-2.7.7-1.5,2.1-1.3,1.6.5,2.2-1,1.5-1.6,1-.3,2.9.4,1.1-.2,2.8.3,1,.5h0Z"/>
  <path id="SK" class="st2" d="M674.8,427.7l-1.5,3-.8,2.9-1.6,1.7v2.5l-4.2,1.1-.6-.2-2.2-2.2-1.4-.9-4.6.7-2.5-.6h-2.7c0-.1-1.8.3-1.8.3l-1.6,3.5-5,2.5-3.5-1.4-.7.2-1,1.5-2.4.6-4.3.4-1.4.7-.4,1,.5,1.3-.6,1-7,.4h-4.7c0-.1-1.6-.8-1.6-.8l-4.2-2.7-2.1-.3-2.3-2.9-1.6-2.9v-.8l.8-2.4,1.1-2.8,1.4-1.2,3.6.5,1.7-.2,1.5-.7,2.1-1.9,1.6-.8.7-3,2.3-1.2.6-.8,2-1.5,2.8-.3,1.3.2.5,1.5h2.2l1-1.7,2.2-1.3,3,3,1.4.4.6,2.7,1.4-.4,1.7.6,1.1-2.1,2.3-1h3c0-.1,2.4.9,2.4.9h1.8c0,.1,1.4-1.4,1.4-1.4l3.2-.2,3.6.3,3.1,1,1,.7.8,1.4,5.7,1.9.9.2h0Z"/>
  <path id="SI" class="st2" d="M605.2,467.1l-2.5-.6-.9.8v1.7h-2l-.7,1-4.4,1.7-.4,1.4.9.9.2,2.2-.4,1.1-2.1.6-2.1,1,1,1.1-.7.7.8,2.3-1.2.4-1.6-.2-2-.7-1.3.5-1.5-.7-2.6-2.1-1.2,2.2-.6.3h-3.6c0,.1-1.1-.4-1.1-.4l-1.4,1.3-3.3-.8-.5-.6,1.7-1.1h1.5c0-.1-.2-1.4-.2-1.4l-1.5-1.3-1.9-1.1.4-2-1.3-.2-.3-1,1.6-2.1-2.3-.7-.7-1.4,3.3-2.3.2-.9,5,.9,5,.7,3-1.2,1-1.3,1.9-.7,2.6-.2,2.8.2,2.3-1.1,1.6-.2,2.4.5v-1.9l1.4-.9h2.4c0,.1,1.4,3.4,1.4,3.4l1.9,2.2h0Z"/>
  <path id="SE" class="st2" d="M591.1,319.4l-1.5-.3-.3-3.8,2-4.6,1-.3,2.7-6.5.5,2-1.5,3.2-.3,2.2-.6.5-2,7.6h0ZM617.3,296.7l-1.3,1.4-1.4.5v3.3l1.6,1.2-1.3.5-.7,1.8-1.8.6-1.5,1.6-.3,1.6-2.1.9,1.2-2.4-.9-.7-1.4-2.1.4-.9-.6-3.2,2.7-2.9,1.3-1.1,3.3-1h1.3l1.5.9h0ZM654.1,183.7l-2.7.3-2.2-.6-1,.3-3.8.3-1.1.7-2.1-.7-2-1.2-2,1.1-1.6-1-1,1.9v1.8l-1.7-.2.3,1.1-2,1.5-3.2.2.7,1.5-.9.7,1,1.7-1.3,1.5-2.1,1.9-.5,1,1.7,1.1,1.6,2.5,1.6,1.1-.4,1.2-2.1,1.1-2.2,1.7-2,4.3-3.1,1.3-2.4,1.6-3,.7-2.4,2.2-1.8-.8-1.5.5-1,1.8-1.9,1.5-2.4-.2.2.8-2.3.3-1,4-2.2.6-.7.8-.9-.6h-2.1c0,.1,1.6,2.9,1.6,2.9l-1.7,1.8h-1.2l-1.5.7-1.9-.8-.2,1.2.8,1.3,1.3,1v1.3l-1,4.3.7,1.8-2.1,1.2-.8,1.1.6,1.7v1.1l.6,1.9.8,4.2,1.1,2v1.6l1.2.9h2.1c0-.1,1.4,1.5,1.4,1.5l3.1-.8.8,1.1,2.9,2.2,1.7.3,1.9,1.2v1.5l2.9,1,1.9,2,.8,1.6v1l-2.7,1.5-1.3,1.3-3.8,2.1h-.6c0-.1-2.1.9-2.1.9l2,.6,1.4-.7,2.6-.6,1.4,1.2-2.2.5-.3,1.6-.8,1-2,.7-2.8,1.5-4,1.4-1.1,1.2-2.6,1-1.3.8h-7.5c0-.1,1,.8,1,.8l.9-.2,3.6.4,1.7,1.3-3,.9,1.7,3.2-.7.8.4,3.5h-1.1c0,.1-.3,1.5-.3,1.5l.6,2.5,1,2.1v1l-1.6,2.4.9,2.9-1.5,5.3-1.9,3.1-1.3,4.1-1.8,1.4-2.4-.9-3.4.5-3.2-.3-3,.2-.8.4.7,1.4-2.3-.2-1.7,1.1-2,2.1v1.5l1.9,3-1.7,2h-1.1l-3.2-.5-5.5,1.2-5.1-1,.5-1,.2-3.1-.6-1.7-1.3-1.1-3.1-3.8-1.2-2.3,2.4.9,1-.5-1.8-2.6h2.2c0-.1.7-1.1.7-1.1l-.6-1.5-1.9-.6-1.9-2.4-1.8-1.2-3.5-4.7-1.3-3.2-1.1.3-1.2-3.7-1.7-.6-.6-3.7-1.8-.4-1.3-1.7-.4-3.2-1.2-.6-.8-1.4-.8-3-.3-2.7-.9-1.8.5-1.2,1.1-.2,1.1.8,1,1.8,1.9-.2.7-1.4.6-3.9-1.6-4.4,1.5-1.5.9-2.4,2.6-.7,1.3-.8,1.9-2v-2.8l.7-2.1-.5-1.4-3.1-4.9-.3-1.6,1.8-.6h2.4l1.3-2.5.4-1.9-3.4-2.7-1.2-.4-3.8-2.1.9-6.4v-1.6l-2.5-4.4v-1.8l-.5-2.8,1.1-1.1-2.7-4.1,2-2.8-.5-1.5,1.2-1,3.5-3.8,3.3-1.5,3.3-.4,7.1.9,1.7-2.2v-1.2l-1.2-2.9-4.7-1.6,4.4-5,3.3-5v-4.7l.7-2.7-1.4-3.9,3.8-.4,2.4-.5,3.3-1.5-1-2.5,1.3-.9,3-2.9,3.3-2.9,1.5-1,.2-1.4-1-1.3-2.7-2.3.5-1.1,2.7-.6,1.1-1.1,1.5-3.5,3.7-1.9,1.5-.9,6.3,1.8,2.1-3.1-.8-3.6v-.8l2.1-.5,4.1.9h2.9c0,.1,8.6,1.8,8.6,1.8h1c0,.1,2.5-1.5,2.5-1.5l-2.9-.9,1.6-.9,1.4-1.9v-2l-2.7-1.6,5.1-.2,2.9.8.4.9,2.9,1.1,4.8,2.3,4.2,1.8,8.3,1.7,3.5,1.8,1.2,1.6h1.4c0,.1,1.9,1.6,1.9,1.6l1.8.9-1.1,1,.4,2.4.7,1.4-.3,1.9,2.8.4.6,1.3-1,.8v1.1l.7,1.6,3.3,2.6.6.9-.7,1.4v1.8l-1.4,1.3v1.3l1.3,2.6,1.8.6,1.9,2.2,1.6,2.5h0Z"/>
  <path id="TR" class="st2" d="M733.4,565.7l-2.9.5v-1.5l2.1-.6.8,1.6h0ZM927.9,544.2l4.3,1.3,1.1-1h3.6l3.4.9.9-1.9,1.4-.4,1.4.3.6,1.1,1.2.4,3.5,2.5,1.1,1.7,1.9.2,1.3,1.2,1.3,1.6,1.7,1.2,1.7,3.3-.2,2.3-1,1.4.8,1.9,1.9,3-.5.6,1.8.9,2.9.9,3.5-.4,1.6.7,2.3,1.7,3.2,2.8.8.9-3.3-1.9-1.4,1.6v3.8l-.7.4h-2.8l-1.2.3,1.2,2.5,1.4,1.2v2.3l2.1,2.5.2,2.1.9,2.2.3,2.2.5.7,1.4.3-.6,3.8-.6,1.2-.4,2,1.7.6,3.2,2v1.3l.7,1.5.3,2,3.2,2.3v2.3l-2.1-.5-3.7,3.1-1.2-1.2-.3-2.4-1.5-1.5-1.3-.2-2.1,1.4-4.2-.3-2.9-1.1-2.9-.8-1.9.6-2.2-.7-1.5,1.9-2,1.9-1.2.3-1.6-2.6-1.3-.2-1.2,1.3-2.2.8-4.6,1-3.2.3-4.1-.6-3.2.2-3.1,1.4-5.2,2.8-4.1,1.4-4.2.9-7.6-.2-1.1-.3-3.5-2.3-3.4-.6-3.4,1.6-2.3.8-3.5,1.6h-4.8l-1.9-1.8-3.7-.7-.6,1.6-.3,3.8,1.8,3.1-3.3,1.4v2.6l-1.8,1.1-.8,1.6-2.2-1.2h-1l.7-1.4-2.5-4.9.7-1.5,3.5-3.9-.4-2.4-2-1.6-2.9,2.1-1.7.8-.3,1.2-1.1.8-1.8.4-2.9-1-3.2-1.4-1.9-1.1-1.4-.3-1.3.5-3.5,2.8-3.1,4.1-.8.8-3.2,1.7-2.2.6h-1l-4.4.7h-2.2l-1.6,1-3.5-1-2.2-1.3-1.4-1.3-2.3-2.9-1.6-1.3-3.3-1.2-5.8-3-5.3-.7-4-.3-.7,1.1v4.2l-.4,1.2v2.2l-1.2,1.1-2.1-1-1.9.9-3.7,1.3h-1.2l-4.6-1.5-2.9-2.1-.6-2-1.3-2.7-1.8.3-2.3-.4-3.2-1.6h-2.4l-1.2,1.8-1,.7-1.3-.4.8-1.3-3.7.2-1.8,1h-1.5l-1-1.1,2-.6,3.9-.4.9-.4.9-1.3,1.7-1.2-1.2-.5-6,.3-4.2-.2-1,.7-.4-1.6,3.6-1.4-.3-1.3-4.2-2.2-.3-1.6-2-3.1,1.9-.5v-2.5l-.3-1.5-3.9-1.3h-.8l-1.1-1.2-1.7-.9-1.2.7-3.3-1.4-.6-.6.5-1.4,1-1.1-.9-1.9v-1h1.7l1,1.1.3,2.2,3.6.7,2.9-.6-2.5-1.1-1.1-1.2-1.2-2.3,1.8-1.1,1.2-1.7-2.7-1.2.2-2.4-2.5-2.7.3-.8,2.3-2.8-1.2-.7-4.3.7-1.6.6-3.1.2-.3-1.6.6-1.3-.5-3.4.2-1.8,1.7-.6,1.7-2.7,3-3.1h3.5l1.3-.9h2.1l.8,1.2,1.9.9h3.2l1.4-1-1.6-1.5,1.7-.5,1.5.4v1.8l4-.5,4.4.4,1.4-.2h3.4l.5-.5-3.6-1.7,2-1.5,6.8-1.2,3.7-.8-5.7-.8-1.4-.6-2-1.4-1-1.1.3-2.6.6-.7h2.2l7.7,1.1,5.3-.8,6.1,1.8,5.6-.4,1.1-.7,1.1-2.6,7.4-4.2,2.4-2.1,2.8-1.2,5-1.4,4-1.7,1.2-.2,10.4.8h7l3-1.5,2,.5v2.1l2.5,2.6,3.5,1.4,4.4-1.2,1.8.5,2.2,4,1.5,1.4,1.8.9,1.3.2,1.5-1.4h1.7l2.9,1.2,1.2,1.4,4.8,1.1,4.3.6,2,1.2,6.2,1.2,2.2-.2,3.6-1.3,7-1.3,5.2,1.9h2.5l1.7.6,1.7-.3,5-2.3,1.4-1.2,1.7-.4,5.2-3.3.9-1.4h0ZM756,537.1v1.8l.9,2,2.3,2.7,2,1.4,8.1,3.3,1.4.3-.9,3.5-2.1.5-6.4-1.5h-1.6l-2.9,1.3-2.3-.4-3.1.6-.6,2.1-2,2.4-3.3,1.9-2.5,1-3.5,3.7-1.5,2.2-1.5.7.5-2-.3-1.7,2.3-2,3.3-1.6.7-1.3-5.4.3h-3.3l-1-1.8.8-.4,2.5-3.2-.5-4.4,3.4-2.5-.9-3.1-2.3-1.5-1.2-.3.3-1.4,1.9-.3,1-2.2,3.4-.4,1.5-1.1,3.5-.3,3.4,2.5,1.5-.6h1.8l.9-.4,1.7.2h0Z"/>
  <path id="UA" class="st2" d="M796.7,471.6v.6l-3.9-.8-.9-.9,4.8,1.1h0ZM770.3,486.2l-1.9-1.8-2.2-.7-2.2.2-2.2,1.3-1.6.5-.9-.3-.6,1.2-4-.9-1.8-.9-1.5-1.6,1.1-.7,2-.2.4-1-.5-1.4,2.5-2.9v-1.3l2.3-1.7.4-2-1-1.7-.5-2.1,2.5-1.6,2.1,1,1.9.2,2.1.8,1.6-.6,1.2,1.3,2.9-.4.6-.7-2.9-1.7-.2-2.9-1-1.6-2.1-.8-2-1.3-.9-1.9v-2.4l-2.9-2-2.3-1.2-.6-1.2.6-3.1-.6-2.3-1.4-1.4-1.4.7-1.4-1-1.4-1.9-5.6-.6-.6-1.2-2.5-.3-3.6-2.4-3.5-1-1.6,1-.8-.3-1.2,1h-4c0-.1-.7-.3-.7-.3l-2.3,1.4-.2.6-3.7.8-.2,1.4-1.1,1.9-8.4,1.2-3.4,1.3-1,1.2-2.1.5-4.3-3.3-1.2-.3-3.6.7-6.9-1.4h-2.7c0,.1-2.7-1.4-2.7-1.4h-.7l-.9,1.2-2.1.9-.7-1.7-.9-.7-2.3-.4-.9-1.1-2.2-.8-1.4-2.3h-1.5v-2.5l1.5-1.7.8-2.9,1.5-3,3.3.7.4-.9-1.9-1.4v-1.8l-1.4-3.8.6-1,3.4-4.4,2.4-2.7,4.8-4.6,3-.5,1.2-1.8v-1.3l-1.9-2.6,1.2-1.3-1.4-1-1.9-2.8-2.7-2.8v-1.3l-1.2-1.8v-1.4l1-.5,1.9.3,1.1.5,1.9-1.2,1.6-1.6.8-1.4,5.9-.5,2.3-.5h2.4c0-.1,7.8.3,7.8.3l6.5,1.5,6.1.9h2.3l1.8,2.1,1,.3h3c0-.1,1.1.3,1.1.3l.8,1.4,1.2-1.7,1.9.5,1.9-.7,5.1,1,.8,1.3,1,.3.6-1.1,3.8-1.6,2.5,3,.6.5,2.3-.8,7.1-.6,2,1.1.5,1.2,2.7.9.8-1.4-1.8-3.6,1-3.3.8-1.2,2.2-2.3,1.1-.5,1.7.4,1.4-.8h5c0,.1,2.6.9,2.6.9h1.7c0-.1,1.8-1,1.8-1l.5-2.4,1.6-.6,3.7.9h1c0-.1,2.7-1.3,2.7-1.3l1.6-.2,2,.3,3.4-.2,2.5,1.4,1.4,1.4,1.7,2.7,4,3v1l-3,.5,1.3,1.9.5,2,1.2,1.7-.4,1h3.1c0,.1,2.9,1.1,2.9,1.1l4.1-.5,1.5,2.2,1.9.2.2.9,1.4,2.8.9,1.1-.2,1.8.5,1,1.9,1.6.7,1,1.1.4,2.3-1.4,2.8.4,2.7,2h2.3l1.7,1.1,1.4-1.3,4.3-.9,2.3-1h1c0,.1,2.3,1.9,2.3,1.9l.5,1.2,1.5,1.6,4.7,2.9,1.3-.6.9-1.5,2.6,1.4,2.4.2,3.6,1.9h1.4c0,.1,1.6-.5,1.6-.5l2,1.8,1.9.2,4.4,2.3,2.9-.3,1,.8v1.7l.9.9v2.6l-1.8,2.1-2.3.8,1.1,1.5,3.1.9-.9.9-1.4-.2-.8,1-.3,2.3,2.5.7,1.2,2.8v1.1l1.2.3-1.3,4.7v1.8l-4.3.2-6-.3-.9.2-.9,1.9-2.3,1.4-1.7.2-.8.8v2.3l-.4,1.3,1.1.7-.7,1.6.5,1.3h-.5c0,.1-4.3-.1-4.3-.1l-3.4.3-2.1,2.4h-1.5l-3.2,1.5-1.4,1.7-1.4-.8-3.1.5-1.7,1.1h-3.1c0-.1-2.3.5-2.3.5l-4.6,3.8h-1.3c0,.1-1-.9-1-.9l-1.6,2.6-2.4,1.2.6,3.1,2.8,4.5,3.6,3.9,1.7,1.4,2.4.7,3.1-1.4,2.4.4,1.7-1.2h1.5c0-.1,3.7.9,3.7.9l-1.1,2.5-.3,2.6-1.9.6h-2.2c0-.1-2.2.3-2.2.3l-2.7-1.5h-2.5l-1.1,1.9-2.3,1.3-.6,1.4-2.6-.3-2.1.2-2.8,1.4-1.9,2.8-2.3,1.8-1.9.5h-2c0-.1-1.3-.7-1.3-.7l-2.9-1.8.7-2,.5-3.5-1.2-2.9-2.3-1.4-1.6.2-.9-.3-3.7-2.4-1.9-.2-1.9.5-1.5-1.2,3.5-2.9,3.5-2.4,1.7-.2,2.1-1.2,2.2-1.6-1.3-2.3-1.9.6-2.2-1.1-.9-.8-3.1.8h-1.8c0-.1-3.8.7-3.8.7l-1.9-.8-4-2-2.6-.3v-1l1.8-.3v-1l-3.7-.6v-1.3l1.9.5,3.2.2,2.9.5,2.1-1.8-2.4.5-2.9-.5-2.1-1.8-2.2,1.2-3.2-.5-2.4.8-2.3-.2-4.1,1.1-.4,2.9-2,4-3.1,3.7-4.6,2.1-1.7-.4-.9,1.1.2,1.3,1,.9,1.1,3.1v1.3h0Z"/>
  <path id="XK" class="st2" d="M674,532.8l-2.1.4-1.5,1.9-1.6-1.2h-1l-3.4,1.6-.2,2.6-.5.8-1.7-.3v-2.2l-1.5-3.2-1.9-1.3-1.4-.5-2-2.9-.5-.4.2-1.3-.9-1.5,2-.4.2-.7,1.6-.4,1.5-.5v-1.4l1.7-1.3.4-1-.6-1.6,1.7-.9,1.1,1.3,2.8,1.3,2.3,2.1.2.7,2.2,1.2v1.3l4.7,1.2-.2,1.2-1.2,3.2-1,.9.6,1.3h0Z"/>
  <path id="NL" class="st2" d="M452.2,392.5l-.6,1.2-3.2,1.5-3.9-1.1-1.2.6-1.2-.7-.3-1.3,2.8-.4,3.5.7,1.5-.6,1.2.5,1.4-.4h0ZM448.8,387.2l1.5,1.4-1.5.3-1.6-1,1.6-.7h0ZM466.9,378.7l-3-.4-.9-.7,2.4-1.7,3.2-1.5,1.7.4.5.9-1.1,1.1-2.8,1.9h0ZM459.3,367.2l-1.1,1.1-.6-1.4,1.7-1.4v1.7h0ZM452.2,392.5l-2.6-.8-2.2.5-2.8-.7-1.7-1.3,1.2-.7h2.3c0-.1,4,.6,4,.6l1.2-.9-.6-1-2.3-2.1,1.6-2.7,1.4-1,3.2-3.8.9-2,1.2-5.5,1-2,1.4.5,2-.8,3.4-2,1-1.7,1-.9,4-1.6,2.1-.4,8.9-.5,1.8,1.7,2.7.6v4.3c.1,0-.6,1.7-.6,1.7l-1.1,3.8h-3.1c0-.1-.6,1.5-.6,1.5l.7,1,2.6.3.8,1-.6,2.6-2.6,1.6-.3.9,1,.9-.7,1-4.5,1.3-2.3-.8-1.8.7-.7,1.1,3.1,4.1v1.2l-1.3,2.8.7,1.2-2.2,1.6-.5.8,1.9,1.2-.6,2.4h-1.2c0-.1-2.4-.4-2.4-.4l-.7-1.1,1.1-1.3,1-2.9-2.6-1.1-1.7-1.3-1.9.4-2.6-1.4-.5-1.6-2.5.8-1.1-1.3-1.5,1-1.5-.8-1.4.7.2.9-2.1-.3h0ZM470.3,376.9l.9-.9-.5-1.9-2.1-.3-.5-.8.4-2.5-2.8-.4-.4-2.5-1.5.3-2.3,1.5.6,1.3,1.6,1.6v.9l-2.1.7v2.6c.1,0-.1,1.6-.1,1.6l5.4,1.4,3.4-2.6h0Z"/>
  <path id="ES" class="st2" d="M420.4,584.7l-.4,1-2-.4v-1.5l1.2-1.6,2.7-.7.8,1.3-2.3,1.9h0ZM442.1,571.1l1.2.5,1.3-.5,1.4.4.2,1-2.2,3.5-.6,1.4-2.1,1.3-4-1.7-.3-1.6-1.4-.7-1.7,1.3-1.4-1-.3-1.2,5.3-3.7,1.5-.9,3.2-.9.5,1.2-.6,1.6h0ZM456.8,570.3l-.3.2-3.9-1.9-1.6-.4v-1.4c.1,0,2.7-.2,2.7-.2l2.1.7,1.2,1.8-.2,1.2h0ZM379.4,514.8l.5,1.3,4.3,1.3-.3,3.2,1.8-.4,4.4,1.7,2.2.2,2.2,2.1,3.6-.4,3.2,2.1,3.1-.4.7.4h4.7l.8-2.4,4,1.1,2.5,1,1.7.3,1.1,1.5v2.1l.7.4,2.8-1.1,2.8,1.2,1.3,1.2,2.1-1.1,4.7,1.2,1.2-.8,3.8-1.1,3.1.6,1.2,2.2-1.8.5-.2,1.4,1.2,1.3v2.1c.1,0-2.9,2.8-2.9,2.8l-8.7,4.7-2.9,2.7-6.6,1.5-4.5,1.5-2.2.5-4.1,3.8,1.1.3,1.2,1.2-.4.6-2.5,1.1h-.9l-2.9,4.6-2.6,3.3-1.5,1.5-1.5,2.1-3.2,5.6v1.6c-.1,0,1.5,5.5,1.5,5.5l2.2,2.7,2.4,1.1.6,1-.8,1-2.4,1.7-4.3,2.3-1.8,1.9-.3,1.8-1.3.8-.5,2.5-1.8,4.4,1.3,1.2-1.3.8-6.5.3-4.1,2.8-2,2.4-1.9,4.5-2.2,2.6-1,.5-1.5-1.2h-1.9l-1.9.2-1,1-1.5.5-1.5-.5-4.6-.2-2.3.8-1.9-.5-3.2-.3-7,.6-4,3.4h-3.4l-3.1,1.2-2.1,3-.5,1.6-1-.3-.3,1.2-2.1.8-2.4-1-2-1.5h-1l-1.6-2.3-1.2-3.1v-1.1l-1.5-.6-.3-1.4.2-1.6-1.2-2-5-3.7-3.7-.3-3,.5-1.1-6.4.8-2.2,3.5-4.3,2.1-.6.7-2.4-1.7.2-3-4.3.9-4,3.2-3,.6-2.4-.5-.8-1.7-.4-1.6-3.2-.3-1.9-1.4-1.2-1.1-1.9,1.1-.3h4.3l1-.5,1.7-3.5v-1.9l-1.4-1.3.2-1,2.7-2.1-.4-1.1.4-3.8-.4-3.5-.8-2,2-1.6,1.1-1.6,1.6-1.4,2.1-1.1,2.5-2.5-.3-1.1-1.9-.9-1.9-.2v-3.1c-.1,0-.8-1.1-.8-1.1h-5.2l-1.5-.6-.8,1.4-2.5.9h-1.4l-2.2-.8h-2.9l-3,1.2-.9-1.3,1.3-1.9-1-1.8-4.1,1-1.9.9-1.2,1.1h-1.3v-2.6l2.6-2.6-1.6-.2,1.2-1.9-1-1v-2.6c.1,0-2.2.9-2.2.9l-.5-1.2,1.4-2.2-1.4-.2-2.3-2.5.8-3.1,2-1,1.9-1.5,2.6.3,1.7-.3,3.6-1.6-.4-1.5.4-.7,3.2-1.7,2-.2,1.9-.9,1.3.5h1.1c0-.1,1.3.5,1.3.5l1.7,1.6,2.5.6,2-.5h3.6c0-.1,1.7,0,1.7,0l3.2-.3h1.8c0,.1,2.9-.7,2.9-.7l2.3,1,4.4.4,2.6.8,7.2,1.4h2.7l3.7-.8,1.6-.5,1.5.3,2.1-.6,2.3,1,4.7,1.3,2.1-1.3,3.4.6,3.3,1.3h1.8l2.6-.2,2.5-1h0Z"/>
  <path id="FR" class="st2" d="M521.2,524.1l-.3,2.3,1,1.7.6,6.5-1.8,3.2v3l-1.5,4.3-.8,1.1-3.8-2-1.2-1.1,1-1.8-2.2-.9.4-1.7-.2-.9-1.6-.5,1-1.3v-.8l-1.5-1-.3-.9,1.3-1.1-.6-.9v-1.3c.1,0,1-1.9,1-1.9l1.2-.9,2.8-.8,1.2-1.1,1.9.6.6-1.2-.2-2.7.3-1.1,1.3.5.4,2.7h0ZM387.3,476.2l-.4,1.4-1.9-2.4,1-.5,1.3,1.5ZM471.7,420.6l2.1,1.2h1.4l2-.6,1.3.7h1.4c0,.1,3.5,4.4,3.5,4.4l1.8-.7,1.4.4.3.9h2.1c0,.1,3-.5,3-.5l2,1.4,4.8.8,1.6.6v1.3c.1,0-3.4,3.8-3.4,3.8l-1.4,5.5-1,1.8-.3,1.5.2,2.4-.6,2v1.5l1.1,1.3-1.5.7-.8,1.4-2.7.3-.8-.8h-1.1l-1.8,1.4,1.3,1.1-.6.9-3.8,4-2.1.9-.5,2.9-3,2.2-1.1,2.9.8.7-.3,1.5-1.5,1v1h1.4c0,.1,2.3-1.5,2.3-1.5l-.5-1.3,2.3-1.5h1.9c0-.1,2.2.2,2.2.2l.8,2.2-.5,1.7,2.3,2.3.9,1.4-2.6,1.7v1.6c.1,0,1,.6,1,.6l1.7,2.6,1.8,1.6-.8,2.5-1.2.3-1.7,1.3-1.9-.2-.8.4,1.5,3.1,3.2,1.4.5,1.7-.8.7-1.4,2.5.7,1.3v1.4c.1,0,1,.9,1,.9l5.1,2.4,3.3-.6.3,2-2.1,2.6.2,1.5-.6.3-.8.3-2.4,1.1-3.9,3.4-1.8,1-.7,1.8-2,1.4-2.4.5-2.3,1-1.1-.4h-2.8l-1.7-1.2-3.4-.8-1.1-1.8h-2.5l-.8-1.6-1.9.3-1.5.7h-2l-5.9-1.9-1.4-1.4-1.7.5-1.6,1.6-6.5,4.1-2.6,4.3v1.2c-.1,0,.6,3.9.6,3.9l1.6,2.5-3.1-.6-3.8,1.1-1.2.8-4.7-1.2-2.1,1.1-1.3-1.2-2.8-1.2v-1.5l-2.6-.6-.9.7-1.1-1.5-1.7-.3-2.5-1-4-1.1-.8,2.4h-4.7l-.7-.4-3.1.4-3.2-2.1-3.6.4-2.2-2.1-2.2-.2-4.4-1.7-1.8.4.3-3.2-4.3-1.3-.5-1.3,2-.5,1.9-1.9,1.7-7.1,1.3-8.3,1-1.6,1.2-.4-1-1.2-1.1,1.5.7-7.6.5-2.8.9-3,3.1,2.4.8,1,.9,3.4h.6c0,.1-1.1-4.5-1.1-4.5l-1.8-2.3-3.6-2.3-.5-1.3,1.8-.6-.5-1.8-.5-5.9-3-.6-4.8-2.6-1.7-2.6-1.6-1.9-.4-1.7.9-1.8-.8-1.1-1.4-.8,1.1-1.6-3-.2-1.8-.5-.3-1.1,1.3-1.4-1.6-.8-2.6.2-.2-1.7-2.2.3-1.2-.3-1.1-1.1-1.3.2-2.2-.4-.8-.7-4.8-1.3h-2c0-.1-1.9.5-1.9.5l-1.1-.3-1.3-2.2-3.1-1.1.6-.7,3.1-.6.6-.7-2.2-.9-.2-1.2,1.6.3v-1.2c.1,0-3.9.1-3.9.1l-.4-1.3.5-1.4,2.3-1.2,5.8-1.4,2.5.2,1.7-.2,3-1.6,2.9-.4,2.7.8,2.5,2.8,1.2,1,3.1-1.7h4.4c0,.1.9,1,.9,1l1.2-1.7,1,1,4.7-.2-1.5-2.5-.2-6-1.3-1.7-2.1-4.3.2-1.4,3.2.3,2.7-.6,1.3.4.3,2.8,1.1,1.6h2.2l2.3.5h3c0,.1,4.3.9,4.3.9l1.8-.5,3.5-2-1.8-.7-.2-.7.9-2.2,5.2-2.5,3.7-.7,3.8-1.3,2-1.4,1.2-1.8.5-1.3.3-6.8,1-2.2,2.9-1.6,6.4-1.1.9-.5.9,2.2v1.2l2.9,2.4,3.2-1,1.6,1.8.5,2,4.2,1.1.6,2,.9-.3,3.6.4,1.6,1.1-.4,1.6.7.7-.7,1.4.5.6,2.3.3,2.2-.3,1.3-.6.5-1.4,1.9-.6-.8,2.7.6.6.4,2h1.7c0,.1,3.3,1.6,3.3,1.6l2.8,2.6,3.4-.4h0Z"/>
  <path id="PT1" class="st2" d="M306,611.9l-1.2.2-4.5,2.5h-1.3l-2.5-1.1-4.5-.4-1.5-.3-1.8.7h-1.5l-1.1,1-.8-.3,1-2.1,1.6-4.1v-2.6l.4-2.2-.3-2.1-.7-1.4,1.1-3.5v-1.8l-.9-2.3,2.8.3-1.7-1.4h-1.5l-2.3.9h-1.5v-1.3c.1,0-.4-1.8-.4-1.8l2-.6,1.6-1.7-.3-1.6-1.2,1.1-.6,1.4-2.8.7-1.5-.5v-1.9l.6-1.7.4-2.3.8-2.2-.2-1.4,1.6-1.3,1.4-1.9,4.3-8.9-.6-1,1.7-6.6,1.2-2.3.6-4.3-.2-2-.7-2-.7-4.3v-1.4l-.9-1.8v-1c.1,0,1.5-1.7,1.5-1.7l1.2-1.1,1.9-.9,4.1-1,1,1.8-1.3,1.9.9,1.3,3-1.1h2.9l2.2.7h1.4l2.5-.9.8-1.4,1.5.5h5.2l.7,1.2v3.1c.1,0,2,.2,2,.2l1.9.9.3,1.1-2.5,2.5-2.1,1.1-1.6,1.4-1.1,1.6-2,1.6.8,2,.4,3.5-.4,3.8.4,1.1-2.7,2.1-.2,1,1.4,1.3v1.9l-1.7,3.5-1,.5h-4.3l-1.1.3,1.1,1.9,1.4,1.2.3,1.9,1.6,3.2,1.7.4.5.8-.6,2.4-3.2,3-.9,4,3,4.3,1.7-.2-.7,2.4-2.1.6-3.5,4.3-.8,2.2,1.1,6.4h0Z"/>
  <path id="CY" class="st2" d="M843.2,646.3h-.2.2ZM843.2,646.3h.3-.3ZM842.8,646h0ZM846.3,645.2h.2l.3.4.2.4v.3l.3.2h.2-.8l-.2-.3h-.9l-.6.2h0v.2h-.7l.2-.2h0v-.3h-.5v-.5h0l-.3-.2v-.2h0l.2-.2h0v.2h.2v-.2h0v-.2l.2.2h1.3l.7.2h0ZM842.3,646.3v.2h-.3l-.3.4v1.4h0v.4h-.8v.4h-.4l-.4.2-.4.2h-.3l-.2-.2v.5l-.3.2-.9.2h-.2v.2h-2.3l-.2.2-.6.5v.3h-.7v.2h0v-.5h.5v-.4h-.5l-.2.2h-.6l-.3-.2h0v-.3h-.5v.2h-.2v.2h-.6v.3h-1.3l-.5-.3-.7-.4h-.3l-.3-.2h-.8l-.2-.3-.6-.4h0v-.5h0v-.2l-.4-.9h0l-.3-.3h-.2v-.8l-.2-.4v-.8l-.4-.5-.2-.3v-.7h.4l.4.6h.3l.2.2h.6l.4-.2.3-.4.3-.4v-.5l.2-.3h.2v-.2h.3l.2.3h.3l.2-.2v-.4h.4l.2.5v.2l.2.2h.2l.4.2h.3l.2.3h.2v.5h0v.2h.5v-.5h.2v.2h.6l.2-.3.2-.2h.2l.3-.3v-.2h1.4v-.2l.4-.2h.4v.2h.3l.2.2.2.2h.2l.3.2h.2v-.4l.4-.3h.9v.4h.2l.2.2.2.2h0v1.8h.4v-.7h0v-.2h0v.4l.2.2h.3v-.2h.4l.3.2h.3l.3.2h0l.8.7h0Z"/>
  <polygon id="_x30_" class="st2" points="399.9 390.8 399.9 390.8 399.9 390.8 399.9 390.8"/>
  <polygon id="_x31_" class="st2" points="575.4 412 575.4 412 575.4 412 575.4 412"/>
  <polygon id="_x32_" class="st2" points="521 266.6 521 266.6 521 266.6 521 266.6"/>
  <g>
    <path class="st1" d="M677.8,474.7c-8.6,0-15.6,7-15.6,15.6,0,14.4,15.6,28.9,15.6,28.9,0,0,15.6-14.4,15.6-28.9s-7-15.6-15.6-15.6h0Z"/>
    <circle class="st0" cx="677.8" cy="490.3" r="8.8"/>
  </g>
</svg>